<svg width="45" height="79" viewBox="0 0 45 79" fill="none" xmlns="http://www.w3.org/2000/svg">
<g id="Group">
<path id="Vector" d="M21.8457 44.5886C19.5779 44.2123 18.168 42.8551 16.5916 40.9812C13.8592 37.6013 11.766 33.9147 9.54137 30.2369C7.15911 26.1738 4.90816 22.102 2.272 18.1878C1.09843 16.4189 0.704152 14.4661 0.703844 12.4869C0.659654 9.85099 1.67521 9.25534 4.31952 9.34256C6.30715 9.47365 7.81334 10.2966 9.61728 11.6275C9.30164 8.87775 9.00358 6.3907 10.9821 4.41128C13.2146 2.28294 16.7519 1.91466 19.125 3.86723C20.9465 5.46082 22.1465 7.62373 23.3376 9.65528C23.7755 10.2857 23.9507 10.9338 24.2572 11.573C24.8704 12.8515 25.6496 12.6675 26.5076 11.6865C26.7527 11.4063 26.989 10.9947 27.094 10.5918C27.3304 10.1802 27.4266 9.64596 27.6542 9.10297C29.282 3.84834 32.1802 3.78665 36.9438 5.97535C39.3957 7.13099 40.6131 9.55659 40.027 12.6305C39.8169 13.4362 39.8783 14.3558 39.6683 15.1615C38.5126 15.6345 37.4795 15.9674 36.4551 16.4317C36.9369 17.719 38.9245 17.85 38.3293 18.8134C37.6115 19.917 38.2333 21.3268 37.3754 22.3077C36.5087 23.1573 37.3406 23.7615 37.6559 24.5321C37.6822 24.9262 37.6998 25.1889 37.5948 25.5917C34.968 25.7672 34.968 25.7672 34.4605 28.0442C34.3731 28.7098 34.0054 29.1302 33.6465 29.6819C32.9111 30.5227 32.7011 31.3284 33.2879 32.2128C33.8835 33.2286 33.3756 33.5265 32.3337 33.728C31.5544 33.912 30.9504 34.7441 30.0749 35.4623C30.4078 36.4956 30.9859 37.2487 31.704 38.1243C32.2733 38.746 32.1945 39.5429 31.2927 39.8671C30.0057 40.3489 29.9094 40.8831 30.899 41.8726C31.188 42.2491 31.2319 42.9059 31.2582 43.3C31.267 43.4313 31.2758 43.5627 31.1532 43.7028C30.3652 43.7554 29.9975 44.1758 30.0502 44.964C29.6649 45.1217 29.2709 45.148 28.8857 45.3057C28.045 44.5702 27.3444 43.9573 27.6594 42.7487C27.9744 41.5402 27.2476 40.5332 26.9147 39.4998C26.0912 37.0479 24.3575 36.7679 22.5016 38.6072C21.8887 39.3079 21.6699 39.9822 21.7314 40.9017C21.679 42.0927 21.758 43.275 21.8457 44.5886ZM38.0221 14.2159C37.8644 13.8306 37.5842 13.5854 37.3391 13.8657C37.2165 14.0058 37.1115 14.4087 36.9977 14.6802C37.0152 14.9429 37.2955 15.188 37.5494 15.0391C37.7945 14.7589 37.9083 14.4874 38.0221 14.2159Z" fill="#FAC95D"/>
<path id="Vector_2" d="M21.8468 44.59C21.7678 43.4078 21.8114 42.0854 21.7325 40.9031C21.671 39.9836 21.8898 39.3093 22.5026 38.6086C24.3498 36.638 26.0836 36.918 26.9158 39.5013C27.2487 40.5346 27.9755 41.5416 27.6605 42.7502C27.3455 43.9587 28.0549 44.703 28.8868 45.3071C28.4404 46.5245 28.5106 47.5754 28.8611 48.8714C29.5532 51.3321 29.6061 54.0994 30.0356 56.5777C30.6142 61.2891 31.4643 66.1143 31.6577 70.9833C31.7106 73.7507 30.5377 75.9401 28.1037 77.0264C27.4645 77.333 26.799 77.2455 26.615 76.4661C26.2734 75.3014 25.8004 74.1455 25.7126 72.832C25.2126 67.3236 24.9754 61.7978 23.9501 56.3246C23.2928 52.4101 23.152 48.3292 21.8468 44.59Z" fill="#94B278"/>
<path id="Vector_3" d="M31.389 43.2915C31.2225 42.7749 31.31 42.1093 31.0297 41.8641C30.0402 40.8747 30.1363 40.3405 31.4234 39.8586C32.3252 39.5345 32.4039 38.7376 31.8347 38.1159C31.2479 37.2315 30.5386 36.4872 30.2057 35.4538C30.9586 34.8758 31.5626 34.0437 32.4645 33.7196C33.4976 33.3867 34.0142 33.2202 33.4186 32.2044C32.823 31.1886 33.0331 30.3829 33.7772 29.6735C34.1449 29.2531 34.5038 28.7014 34.5912 28.0358C35.0987 25.7588 35.0987 25.7588 37.7255 25.5833C38.032 26.2225 38.0672 26.748 37.9797 27.4135C36.5532 31.7311 35.258 36.0399 33.954 40.2173C33.385 41.5748 32.6673 42.6783 31.389 43.2915Z" fill="#FACF71"/>
<path id="Vector_4" d="M37.7876 24.5224C37.4811 23.8831 36.6403 23.1476 37.5071 22.298C38.4963 21.3083 37.7519 20.0386 38.4609 18.8037C39.0562 17.8403 37.0686 17.7092 36.5868 16.422C37.6112 15.9577 38.7757 15.616 39.8001 15.1517C39.8618 18.0504 39.118 20.739 38.3829 23.559C38.418 24.0844 38.0328 24.2421 37.7876 24.5224Z" fill="#FACF71"/>
<path id="Vector_5" d="M30.0487 44.9674C29.9961 44.1792 30.5039 43.8814 31.1518 43.7062C31.2045 44.4943 30.9769 45.0373 30.0487 44.9674Z" fill="#FACF71"/>
<path id="Vector_6" d="M38.0258 14.214C37.9032 14.3541 37.7981 14.757 37.6756 14.8971C37.4305 15.1774 37.1503 14.9322 37.1239 14.5382C37.1064 14.2754 37.2114 13.8726 37.4653 13.7237C37.5966 13.7149 37.8681 13.8287 38.0258 14.214Z" fill="#FACF71"/>
</g>
</svg>
