<svg width="69" height="67" viewBox="0 0 69 67" fill="none" xmlns="http://www.w3.org/2000/svg">
<g id="Group">
<path id="Vector" d="M66.21 32.6506C66.3769 33.3186 66.0429 33.8196 65.542 34.3206C61.8686 35.3227 60.5328 37.3267 60.5328 41.3348C60.5328 42.1698 60.1989 43.6727 59.364 43.1717C57.3603 42.0027 58.1951 43.6728 57.8612 44.1738C57.1933 45.6768 57.8612 46.3448 59.5309 46.5118C58.3621 47.3468 58.6961 49.3508 57.0263 49.8518C55.8575 49.6848 55.1896 50.1859 55.3566 51.3549C54.5217 51.1879 54.3546 49.3509 53.1858 50.3529C52.3509 50.8539 51.3491 51.5219 51.516 52.8579C51.683 54.695 49.0115 51.8559 49.3455 54.1939C49.5125 55.1959 48.5106 55.6969 47.8427 55.6969C45.171 55.8639 43.8352 58.035 41.9985 59.538C40.6627 60.707 38.993 61.876 39.16 64.047C38.6591 64.047 38.1581 64.214 37.6572 64.214C36.4884 64.381 35.3196 64.715 34.1507 64.882C30.8112 65.216 30.1432 64.882 28.1395 61.542C27.9725 61.2079 27.6386 61.041 27.1376 60.874C26.1358 60.707 24.6331 60.874 24.2991 60.373C22.9633 58.703 25.468 59.037 25.802 58.0349C25.9689 57.1999 23.9651 54.1939 23.1302 54.1939C23.1302 54.1939 22.9633 54.3609 22.9633 54.5279C22.2954 56.699 20.1247 55.5299 18.9559 56.3649C18.288 56.1979 18.121 55.5299 18.121 55.0289C18.622 53.6929 20.2917 54.1939 20.9596 53.3589C19.4569 49.1839 18.455 48.5159 13.4457 47.5138C12.6109 46.3448 12.1099 45.0088 11.275 43.6728C5.59781 35.4897 1.42342 26.6386 0.421567 16.6185C-0.0793599 11.2744 1.08947 6.09733 5.43083 2.08928C7.26756 0.419264 9.10429 0.419223 11.275 0.586225C14.4475 0.920229 17.2861 1.58832 19.9577 3.59234C23.9651 6.59838 26.8037 10.4394 29.8092 14.2804C31.6459 16.6184 31.6461 16.6185 34.1507 14.9485C38.1582 12.2764 41.9986 9.43737 46.6739 7.93435C50.6813 6.59834 54.5217 6.76538 58.5291 7.76739C61.2007 8.4354 62.7036 11.4414 65.0412 12.9444C68.7147 15.2824 69.5495 18.9565 68.5477 22.9645C67.8798 25.4696 67.5458 27.9746 66.8779 30.3127C65.5421 30.8137 65.2081 31.4816 66.21 32.6506ZM31.1451 51.0208C28.9744 50.8538 27.3047 51.3549 26.1358 53.3589C26.4698 53.8599 26.9707 54.5279 26.9707 55.0289C27.3047 57.033 28.3066 57.1999 29.9764 56.3649C31.8131 55.5299 32.147 54.3609 30.8112 53.0249C29.4754 52.0229 30.8112 51.6889 31.1451 51.0208C31.3121 51.0208 31.6461 51.0208 31.813 51.0208C32.6479 51.0208 33.3159 50.8538 33.3159 49.8518C33.3159 49.3508 33.1488 49.0168 32.6479 49.0168C31.6461 48.8498 31.3121 49.5179 31.1451 50.3529C31.1451 50.5199 31.1451 50.8538 31.1451 51.0208ZM46.3398 17.1195C48.8445 17.1195 50.6813 17.1195 52.5181 17.1195C53.019 17.1195 53.6868 16.6185 53.6868 16.2845C53.8538 15.4494 53.019 15.1154 52.5181 15.1154C50.3474 14.6144 48.3435 14.9484 46.3398 17.1195Z" fill="#E56D6A"/>
<path id="Vector_2" d="M39.161 63.8798C38.994 61.7088 40.6637 60.3727 41.9995 59.3707C43.8362 57.8677 45.172 55.8637 47.8437 55.5297C48.5116 55.5297 49.5135 55.0286 49.3465 54.0266C48.8456 51.6886 51.684 54.3607 51.517 52.6906C51.3501 51.3546 52.3519 50.8536 53.1868 50.1856C54.3556 49.3506 54.5227 51.0207 55.3576 51.1877C55.3576 52.5237 54.3557 53.3587 53.6878 54.1937C49.3464 58.3687 45.1721 62.5438 39.161 63.8798Z" fill="#E88280"/>
<path id="Vector_3" d="M18.9541 56.0304C20.1229 55.1954 22.2936 56.3644 22.9615 54.1934C22.9615 54.0264 23.1284 53.8594 23.1284 53.8594C23.9633 53.8594 26.1341 56.8654 25.8002 57.7004C25.4662 58.7024 22.9615 58.3684 24.2973 60.0385C24.7983 60.7065 26.301 60.3725 27.1358 60.5395C27.4698 60.5395 27.8037 60.8735 28.1377 61.2075C30.1414 64.5475 30.8094 64.8815 34.1489 64.5475C35.3178 64.3805 36.4866 64.0465 37.6554 63.8795C34.1489 67.2195 29.3066 67.3865 25.9671 64.3805C23.1285 62.0425 20.6239 59.3704 18.9541 56.0304Z" fill="#E88280"/>
<path id="Vector_4" d="M59.5305 46.3474C58.0277 46.3474 57.3598 45.5123 57.8607 44.0093C58.0277 43.5083 57.3599 41.6713 59.3636 43.0073C60.1984 43.5083 60.5323 42.0054 60.5323 41.1704C60.5323 37.3293 61.8681 35.3253 65.5416 34.1562C64.3728 38.6653 62.703 43.0073 59.5305 46.3474Z" fill="#E88280"/>
<path id="Vector_5" d="M13.2822 47.1797C18.4585 48.1817 19.2933 49.0167 20.7961 53.0248C19.9612 53.8598 18.4584 53.3588 17.9575 54.6948C16.2878 52.1897 14.2841 50.0187 13.2822 47.1797Z" fill="#E88280"/>
<path id="Vector_6" d="M66.2113 32.6505C65.2095 31.6485 65.5435 30.8135 66.7124 30.3125C67.0463 31.1475 66.8793 31.9825 66.2113 32.6505Z" fill="#E88280"/>
<path id="Vector_7" d="M55.3545 51.1834C55.1875 49.8473 55.8554 49.5133 57.0242 49.6803C56.6903 50.5153 56.1894 51.1834 55.3545 51.1834Z" fill="#E88280"/>
<path id="Vector_8" d="M31.1509 51.0246C30.8169 51.6926 29.6482 52.0266 30.817 53.1956C32.1528 54.3646 31.8189 55.5336 29.9821 56.5356C28.1454 57.3706 27.3104 57.2036 26.9765 55.1996C26.8095 54.5316 26.3086 54.0306 26.1416 53.5296C27.3104 51.5256 28.9802 50.8576 31.1509 51.0246Z" fill="#E88280"/>
<path id="Vector_9" d="M46.3369 17.126C48.3406 14.955 50.3444 14.621 52.5151 14.955C53.183 15.122 53.8509 15.456 53.6839 16.124C53.5169 16.458 52.8491 16.959 52.5151 16.959C50.6784 17.126 48.8415 17.126 46.3369 17.126Z" fill="#E56D6A"/>
<path id="Vector_10" d="M31.1416 51.022C31.1416 50.855 31.1416 50.521 31.3085 50.354C31.4755 49.519 31.8095 48.8509 32.8114 49.0179C33.1453 49.0179 33.4793 49.352 33.4793 49.853C33.4793 50.855 32.8114 51.022 31.9765 51.022C31.6425 51.022 31.3086 51.022 31.1416 51.022Z" fill="#E88280"/>
</g>
</svg>
