<svg width="63" height="149" viewBox="0 0 63 149" fill="none" xmlns="http://www.w3.org/2000/svg">
<path id="Vector" d="M27.6425 131.913C39.3535 127.815 45.68 119.641 47.8715 107.859C48.4445 104.798 49.9389 101.939 50.1837 98.6136C50.944 90.2836 50.9124 89.987 47.7537 81.4749C44.5545 82.4159 42.2077 84.316 39.5643 86.2477C31.7665 91.8785 20.8619 92.2913 13.2428 86.9545C10.156 84.7339 7.03746 82.2168 4.61295 79.1758C-0.0719467 73.2261 -0.218793 69.0423 3.76076 62.7687C6.18247 58.761 8.70494 54.2925 13.7153 53.4583C19.5837 52.2326 25.3457 52.8182 30.9693 54.9182C36.7571 57.1507 42.1791 60.1721 46.9706 64.3106C48.6119 65.6354 49.6975 65.9696 50.7946 63.6029C53.7519 57.5883 54.8981 51.4669 53.5765 44.7087C53.5131 44.1155 53.2856 43.3898 53.3548 42.6326C53.6601 32.8513 48.716 25.8794 42.4532 19.1982C36.5186 12.7818 29.6885 7.81081 21.3005 5.10564C24.0245 -0.284163 24.0247 -0.284136 29.4208 1.09024C44.328 4.45011 53.3119 14.1408 59.1169 27.77C62.5088 35.6573 63.2315 43.8292 61.8463 51.9259C60.7002 58.0474 59.1567 64.6611 54.918 69.9124C53.7259 71.3894 53.5877 72.9039 54.3709 74.6202C56.8213 79.3082 58.3819 84.0911 58.3588 89.4929C58.4508 98.7819 57.3248 107.901 53.4345 116.415C50.4081 123.187 46.8893 129.561 40.1195 133.582C38.435 134.662 38.5616 135.848 40.4678 136.845C42.2099 137.709 44.3494 138.081 46.224 138.781C47.7702 139.216 49.4806 139.783 50.6612 141.007C51.8418 142.231 52.2968 143.682 50.6756 145.355C48.1272 148.177 45.5212 149.054 41.6713 148.115C35.9786 146.772 30.1533 145.594 24.4605 144.251C17.8463 142.706 15.5543 139.501 17.2619 133.02C17.8666 130.256 18.4715 127.492 18.1547 124.526C18.0597 123.636 18.1288 122.879 18.4945 122.09C19.6924 119.263 23.1306 116.346 24.8727 117.21C27.5679 118.573 27.2597 121.305 27.3806 123.842C27.5015 126.379 27.1934 129.111 27.6425 131.913ZM14.7401 75.6962C16.1165 77.3492 17.2655 78.2766 18.6793 78.8757C20.0931 79.4749 21.5069 80.0741 22.7566 80.5408C28.2478 82.8049 37.4795 80.7706 41.22 76.4723C43.0745 74.1748 43.0112 73.5816 40.9783 71.3987C38.1248 68.5534 34.4764 66.6927 30.8281 64.832C25.7659 62.3721 20.2057 60.8652 14.5013 62.2234C9.6868 63.4866 8.25566 66.9388 10.5103 71.1979C11.6534 73.4757 13.2946 74.8005 14.7401 75.6962Z" fill="#A6C4FF"/>
</svg>
