<svg width="44" height="102" viewBox="0 0 44 102" fill="none" xmlns="http://www.w3.org/2000/svg">
<path id="Vector" d="M18.5902 3.50688C19.3145 0.771642 20.9236 0.222293 23.5008 0.807523C33.3349 2.72999 41.2563 12.244 42.7868 22.3091C44.0842 31.0439 42.0694 39.3892 37.3006 46.712C36.2036 48.2752 35.2461 49.6802 36.2704 51.7078C39.2038 57.949 37.9697 64.4519 36.1027 70.397C33.7716 78.4632 30.2309 86.3067 22.6141 91.1187C22.1769 91.2956 21.9168 91.9095 21.7961 92.3654C23.0993 94.0767 25.183 93.9459 26.7277 94.7454C28.1141 95.4054 29.9191 95.5909 29.455 97.712C28.9721 99.5355 27.7169 100.959 25.6518 101.388C24.7588 101.444 24.0053 101.342 23.2517 101.24C19.1674 100.45 15.3807 99.6423 11.4358 98.6947C7.64909 97.8866 6.68095 96.752 7.34901 93.1238C8.01707 89.4955 7.75463 85.3279 10.544 82.1641C11.3808 81.2149 12.0594 80.1262 13.4458 80.7863C14.674 81.3068 14.7492 82.4975 14.6847 83.8464C14.4995 85.6512 14.4724 87.5956 14.4642 89.8375C19.785 88.9056 23.4674 85.6856 26.0422 81.4893C31.5084 73.3755 33.4107 63.2441 30.7562 56.6866C28.3559 56.5385 26.6636 58.1393 24.9525 59.4422C20.377 62.7182 12.2001 63.3813 7.01644 59.3735C4.66193 57.5789 3.16295 55.1328 1.52454 52.8448C0.37952 51.2731 0.546021 49.1704 0.889423 47.5051C1.48248 42.6861 7.69403 36.9165 12.5964 36.4591C18.8478 36.0663 24.0584 38.1299 28.9256 41.8587C33.3182 45.169 34.5089 45.0943 36.1158 39.7633C39.7748 26.6825 37.8072 16.7941 25.737 7.83954C23.3825 6.04488 20.9259 5.00385 18.5902 3.50688ZM9.42269 52.4979C14.4856 56.9616 21.0721 57.1456 26.3261 52.7809C27.6001 51.6548 28.4181 50.408 26.8359 49.0131C22.2102 44.3725 16.8226 41.8719 10.1529 42.7392C6.5994 43.2613 5.14021 46.1921 6.6954 49.5313C7.36577 50.6846 8.31517 51.5215 9.42269 52.4979Z" fill="#A6C4FF"/>
</svg>
