<svg width="13" height="61" viewBox="0 0 13 61" fill="none" xmlns="http://www.w3.org/2000/svg">
<g id="Group">
<path id="Vector" d="M0.512354 15.6186C0.5122 15.302 0.575383 15.0487 0.575229 14.732C1.46175 14.7949 1.33471 13.9083 1.71445 13.5282C2.41058 12.7045 2.28391 12.6413 1.08066 12.3252C1.01724 12.1352 0.953829 11.9453 1.08038 11.7552C1.52363 11.755 1.96675 11.5648 1.83989 11.1215C1.52276 10.0451 2.15551 9.09479 2.15502 8.08149C2.15495 7.95483 2.21829 7.89145 2.28158 7.82809C2.72477 7.70121 2.85128 7.51116 2.40788 7.19472C2.97685 5.29452 3.86248 3.58415 4.74811 1.81045C5.0644 1.17699 5.63412 0.733397 6.14044 0.226503C6.20373 0.163142 6.33033 0.0364104 6.39368 0.0997105C7.21707 0.542627 7.97655 -0.154368 8.73649 0.0352557C9.62308 0.224817 10.5097 0.477725 10.9535 1.55414C11.3338 2.44058 11.9041 3.20025 11.9679 4.21351C11.398 4.34045 12.0321 5.92343 10.8286 5.10071C10.7653 5.22741 10.702 5.35408 10.7021 5.48074C10.7022 5.7974 10.6391 6.17744 10.8926 6.49397C11.3358 6.43042 11.779 6.36688 12.2222 6.30334C12.7291 7.06306 12.5396 7.88645 12.54 8.70975C12.1602 9.08992 12.0972 9.72325 11.4641 9.85022C11.0842 9.97707 11.021 10.2937 11.0845 10.6737C11.3384 11.9402 11.3385 11.9402 12.7316 12.0029C12.8586 12.7628 12.7956 13.4595 12.7326 14.2195C12.2261 14.2197 11.7195 14.1566 11.2129 14.1568C11.0229 14.1569 10.7064 14.3471 10.8964 14.4736C11.4033 14.9801 10.3903 15.3606 10.8338 15.8037C11.594 16.5633 10.3275 16.5005 10.3911 17.0705C10.4545 17.3238 10.3914 17.5771 10.708 17.6403C11.0246 17.7035 10.9615 18.0201 10.9616 18.2735C11.0251 18.7168 10.3922 19.2237 11.2788 19.6033C11.7222 19.7931 11.4692 20.5532 10.7727 20.5535C10.3295 20.6171 10.2031 20.9971 10.3931 21.1236C10.8998 21.5034 10.837 22.5167 11.85 22.1996C12.1666 22.0728 12.1667 22.4527 12.0401 22.5794C11.597 22.9596 11.5974 23.593 11.471 24.0364C11.3446 24.4797 12.1047 25.1127 11.1551 25.4931C11.0918 25.4932 11.3452 25.873 11.5352 25.8096C11.8518 25.8094 12.105 25.6827 12.4216 25.6192C12.4217 25.9358 12.4219 26.1891 12.422 26.5058C11.6624 26.9495 11.5995 27.8361 11.4732 28.5328C11.41 28.9129 11.3471 29.8628 12.297 29.8624C12.2338 30.2424 12.1708 30.6858 12.1076 31.0658C11.3477 31.0028 10.9681 31.573 10.905 32.143C10.842 32.6497 11.1588 33.1562 11.8554 33.2192C11.8557 33.8525 11.9193 34.4857 11.603 35.0559C10.9698 35.0562 10.7168 35.6263 10.5903 36.0063C10.5271 36.323 11.0337 36.4494 11.3504 36.5759C11.0983 39.046 10.6563 41.3894 9.26422 43.48C9.07441 43.7967 8.75793 44.1136 8.75814 44.5569C8.75836 45.0002 8.44191 45.2537 7.99873 45.3805C7.23897 45.5709 6.54282 46.4579 5.65605 45.8884C4.45256 45.0656 2.86936 44.6231 2.61519 42.7866C2.48815 41.9634 2.36106 41.0768 2.36066 40.2535C2.17023 39.3036 2.48627 38.1635 1.47276 37.404C1.47258 37.0241 1.21914 36.6442 1.34557 36.2008C1.5355 36.1374 1.78867 35.9473 1.72529 35.8206C1.34497 34.9975 1.59786 34.2374 1.78743 33.414C1.85059 33.0974 1.72377 32.7174 1.7869 32.3374C1.91327 31.7674 0.836767 31.6412 1.40628 30.881C1.7227 30.5009 1.46901 29.6777 1.46873 29.1077C1.46854 28.7277 1.53165 28.2843 1.15157 27.9679C1.21437 26.8912 1.21386 25.8146 1.40333 24.8012C1.52942 23.6612 1.52934 23.5346 0.199538 23.4085C0.0727118 23.0286 -0.11742 22.6487 0.135648 22.2053C1.46532 22.078 1.71847 21.7612 1.33793 20.4947C1.27445 20.1781 1.08424 19.7982 0.957479 19.545C0.830745 19.355 0.577369 19.1018 0.83056 18.9117C1.40017 18.3415 1.14655 17.5816 1.33617 16.8849C1.77899 15.998 1.7156 15.9347 0.512354 15.6186ZM11.1493 13.5869C11.3393 13.5868 11.4025 13.4601 11.4658 13.3334C11.4658 13.2701 11.4656 13.1434 11.4023 13.0801C11.2756 13.0168 11.149 13.0802 11.0857 13.2069C11.0225 13.3336 11.0226 13.4603 11.1493 13.5869ZM3.50223 44.0528L3.56565 44.1161L3.56562 44.0528L3.50223 44.0528Z" fill="#E56D6A"/>
<path id="Vector_2" d="M6.55022 60.5806C3.76413 60.6453 1.3566 57.8599 1.73532 55.3898C2.051 53.4897 3.12678 52.0959 4.58261 50.9553C5.27886 50.3849 6.16551 50.7645 6.92536 50.7641C9.26823 50.763 10.4088 52.3457 11.1696 54.2452C11.867 55.9548 11.6778 57.6015 10.5388 59.122C10.1591 59.6289 9.65264 59.9458 9.08287 60.1994C8.19647 60.3898 7.24675 60.5802 6.55022 60.5806Z" fill="#E56D6A"/>
<path id="Vector_3" d="M12.4858 25.6201C12.1693 25.6836 11.916 25.8104 11.5994 25.8105C11.4095 25.8106 11.156 25.4941 11.2194 25.494C12.169 25.1136 11.4088 24.4807 11.5353 24.0373C11.725 23.5305 11.7247 22.9605 12.1045 22.5804C12.231 22.4536 12.2308 22.0737 11.9143 22.2005C10.9646 22.5176 10.9641 21.441 10.4573 21.1246C10.2673 20.998 10.3305 20.5547 10.837 20.5544C11.5335 20.4907 11.7864 19.794 11.3431 19.6042C10.3931 19.2247 11.0261 18.7177 11.0259 18.2744C11.0257 18.0211 11.0889 17.7677 10.7723 17.6412C10.4556 17.578 10.4555 17.3247 10.4554 17.0714C10.3285 16.5648 11.6583 16.5642 10.898 15.8046C10.4546 15.3615 11.4675 14.981 10.9607 14.4746C10.7706 14.2847 11.0872 14.1578 11.2772 14.1578C11.7837 14.1575 12.2903 14.2206 12.7969 14.2204C12.7983 17.1336 12.9897 20.0467 12.6745 22.9601C12.4849 23.8468 12.8654 24.7966 12.4858 25.6201Z" fill="#E56D6A"/>
<path id="Vector_4" d="M1.2795 28.0945C1.65958 28.411 1.59644 28.791 1.59666 29.2343C1.59697 29.8676 1.78732 30.6275 1.53422 31.0076C0.964699 31.7679 2.0412 31.894 1.91484 32.4641C1.85167 32.7807 1.9785 33.1607 1.91536 33.5407C1.7258 34.3641 1.4729 35.1242 1.85322 35.9473C1.91664 36.1372 1.66343 36.264 1.4735 36.3274C1.15656 35.631 1.02958 34.871 1.02921 34.1111C0.965022 32.3378 0.710815 30.5014 0.51999 28.7282C0.329195 27.0183 0.201722 25.2451 0.390853 23.5351C1.65733 23.6612 1.72062 23.7245 1.59457 24.9278C1.4051 25.9412 1.3423 27.0179 1.2795 28.0945C1.15289 28.1579 0.836194 27.9681 0.96302 28.348C1.02634 28.348 1.21624 28.2212 1.2795 28.0945Z" fill="#E56D6A"/>
<path id="Vector_5" d="M0.510547 15.617C1.71383 15.9964 1.77715 15.9964 1.46107 17.0732C1.27141 17.7066 1.52507 18.5297 0.955456 19.1C0.702296 19.3534 0.955718 19.5433 1.08245 19.7332C1.27257 20.0498 1.39935 20.3664 1.46282 20.683C1.78004 21.9495 1.52687 22.2029 0.260543 22.3935C-0.0567695 20.9371 0.132485 19.4804 0.258418 18.0237C0.384659 17.2003 0.384274 16.377 0.510547 15.617Z" fill="#E56D6A"/>
<path id="Vector_6" d="M12.7327 12.0033C11.2762 11.9407 11.3395 11.9407 11.0856 10.6742C11.0221 10.2942 11.022 9.91423 11.4652 9.85069C12.0983 9.66039 12.1613 9.09038 12.5411 8.71021C12.9848 9.72329 12.7321 10.8634 12.7327 12.0033Z" fill="#E56D6A"/>
<path id="Vector_7" d="M12.2959 29.9245C11.346 29.8616 11.409 28.9749 11.4721 28.5949C11.5984 27.8982 11.6613 27.0116 12.4209 26.5679C12.5481 27.6444 12.4853 28.7844 12.2959 29.9245Z" fill="#E56D6A"/>
<path id="Vector_8" d="M1.08079 12.2595C2.28404 12.5755 2.34739 12.6389 1.71459 13.4625C1.33488 13.906 1.46189 14.7292 0.575365 14.6663C0.321681 13.8431 0.701267 13.083 1.08079 12.2595Z" fill="#E56D6A"/>
<path id="Vector_9" d="M12.2215 6.17705C11.7783 6.2406 11.3351 6.30414 10.8919 6.36768C10.5751 6.05118 10.7016 5.67115 10.7014 5.3545C10.7013 5.22783 10.7646 5.10112 10.8279 4.97443C12.0947 5.73378 11.4607 4.15084 11.9672 4.08726C12.2841 4.72042 12.1579 5.48044 12.2215 6.17705Z" fill="#E56D6A"/>
<path id="Vector_10" d="M2.15455 8.01901C2.15504 9.0323 1.5223 9.9826 1.83942 11.0591C1.96631 11.5657 1.52316 11.6925 1.07991 11.6928C1.14259 10.3628 1.3319 9.09603 2.15455 8.01901Z" fill="#E56D6A"/>
<path id="Vector_11" d="M11.8559 33.2177C11.1593 33.1547 10.7791 32.6483 10.9055 32.1416C10.9686 31.6349 11.3482 31.0014 12.1081 31.0643C12.1718 31.8243 12.2988 32.5842 11.8559 33.2177Z" fill="#E56D6A"/>
<path id="Vector_12" d="M1.59975 37.4668C2.54993 38.2263 2.23387 39.3031 2.48764 40.3163C1.85403 39.4933 1.53695 38.5434 1.59975 37.4668Z" fill="#E56D6A"/>
<path id="Vector_13" d="M11.4125 36.5762C11.0958 36.4497 10.5892 36.3233 10.6524 36.0066C10.7788 35.5632 11.0318 35.0565 11.665 35.0561C11.5386 35.5629 11.4755 36.0695 11.4125 36.5762Z" fill="#E56D6A"/>
<path id="Vector_14" d="M2.40668 7.06828C2.9134 7.38469 2.78688 7.57474 2.28038 7.70165C2.21696 7.51169 2.21681 7.25836 2.40668 7.06828Z" fill="#E56D6A"/>
<path id="Vector_15" d="M11.1498 13.5884C11.0231 13.4618 10.9597 13.3351 11.023 13.2084C11.0862 13.0817 11.2128 12.955 11.3395 13.0816C11.4029 13.1449 11.4662 13.2715 11.4029 13.3349C11.4663 13.4615 11.3398 13.5883 11.1498 13.5884Z" fill="#E56D6A"/>
<path id="Vector_16" d="M1.27759 28.0936C1.21433 28.2203 1.02446 28.4104 0.961106 28.3471C0.83428 27.9672 1.15098 28.157 1.27759 28.0936Z" fill="#E56D6A"/>
</g>
</svg>
