<svg width="92" height="99" viewBox="0 0 92 99" fill="none" xmlns="http://www.w3.org/2000/svg">
<g id="Group">
<path id="Vector" d="M60.0781 57.117C57.6101 60.079 56.1293 63.6581 54.5252 67.1138C52.4274 71.5568 49.7127 75.6296 47.1213 79.8258C45.3937 82.6644 44.0364 85.7498 42.1854 88.465C40.3344 91.3036 39.1004 94.5124 36.8792 97.1042C35.2751 99.0788 31.9434 99.2023 29.8456 97.7213C25.8969 94.6358 22.6885 91.0567 19.6036 87.2308C16.2718 82.9112 13.4337 78.2213 10.719 73.4081C6.52347 66.2499 3.56186 58.598 1.09391 50.6993C-0.0166677 47.2436 -0.139975 43.7879 0.10682 40.2088C0.353616 36.6297 2.08118 33.9146 5.04273 32.3101C8.12767 30.5823 11.4593 29.7184 15.1613 30.8291C21.0844 32.557 25.0331 36.3829 28.4883 41.1962C28.6117 41.3196 28.7351 41.443 29.1053 41.9367C30.8328 38.8512 31.6966 35.3956 34.2879 32.8038C36.7559 30.3355 39.4706 28.2374 42.8024 27.1266C45.3937 26.7564 47.8617 26.1393 50.6999 27.0032C52.7976 27.6203 54.5251 28.2374 55.8825 29.9652C56.2527 30.4589 56.8696 30.8291 57.3632 31.3228C58.4738 32.3101 59.4611 33.4209 59.9547 34.7785C61.3121 38.1108 61.929 41.6898 62.0524 45.0221C62.2992 49.0949 61.4354 53.1677 60.0781 57.117Z" fill="#FFC192"/>
<path id="Vector_2" d="M60.0784 57.1172C61.4358 53.1678 62.1761 49.095 62.1761 45.0223C62.0527 41.5666 61.4358 37.9875 60.0784 34.7786C59.4615 33.4211 58.5977 32.3103 57.4871 31.3229C56.9935 30.8293 56.3764 30.459 56.0063 29.9654C54.6489 28.2375 52.9214 27.6204 50.8236 27.0033C47.9855 26.1394 45.5175 26.7565 42.9261 27.1268C42.4325 24.2882 41.6922 21.3261 41.4454 18.4876C41.0752 13.4274 41.6921 8.73759 44.4068 4.17115C47.245 -0.518702 55.0191 -2.24654 58.9678 4.29458C60.6954 7.13317 62.5464 9.97179 64.3974 12.687C64.7676 13.1806 65.0143 13.9211 65.7547 14.168C66.3717 14.0445 66.6185 13.6743 66.8653 13.3041C68.7163 10.2186 71.6778 8.12051 73.8989 5.52875C74.1457 5.28191 74.2691 5.03508 74.5159 4.91166C77.971 3.80091 81.4263 1.70282 85.2516 2.56674C88.0897 3.18383 89.6938 5.40532 90.681 7.87367C91.9149 10.9591 92.1618 14.4148 91.1746 17.5002C89.0768 23.7945 86.9791 30.2122 83.7707 36.1362C81.673 40.0856 79.4518 44.1583 77.7242 48.2311C76.3668 51.3165 74.8861 54.402 73.7756 57.7342C73.0352 60.0792 70.5672 60.2026 69.0864 61.4368C68.8396 61.5602 68.2226 61.1899 67.729 60.9431C67.112 60.4494 66.4951 59.8323 65.8781 59.4621C64.5207 58.7216 63.4101 57.1171 61.4358 57.9811C61.189 57.8576 60.572 57.364 60.0784 57.1172Z" fill="#A6C4FF"/>
</g>
</svg>
