<svg width="64" height="59" viewBox="0 0 64 59" fill="none" xmlns="http://www.w3.org/2000/svg">
<path id="Vector" d="M0 14.1421C0.162133 10.4476 0.162212 7.23498 2.10781 4.50427C5.67473 -0.635885 13.1328 -1.43902 18.1589 2.4161C21.4016 4.82555 24.4821 7.23496 26.5898 10.6082C27.8869 12.5358 28.3733 12.5357 30.3189 11.0901C33.8858 8.68061 37.2906 5.62868 41.1818 3.70112C48.802 0.0066346 56.098 -0.635905 62.097 7.39559C64.2047 10.2869 64.5289 13.9814 63.2318 17.3547C61.7726 21.0492 60.3135 24.4224 57.3951 27.4743C53.3418 31.4901 50.4233 36.6303 47.0185 41.2886C44.1001 45.3043 41.0196 49.1594 38.1012 53.1751C36.642 55.2633 34.3722 56.3878 32.4266 57.8334C31.6159 58.476 30.3188 58.7972 29.1839 58.9579C27.7247 59.2791 27.4005 57.6728 26.4277 57.1909C25.4549 56.5484 24.4821 55.9058 23.5093 55.2633C17.5103 51.4082 12.9706 46.4287 8.91731 40.646C5.51252 35.8271 3.72912 30.5263 1.78352 25.0649C0.648591 21.3704 0.162133 17.5153 0 14.1421Z" fill="#FFC192"/>
</svg>
