<svg width="84" height="81" viewBox="0 0 84 81" fill="none" xmlns="http://www.w3.org/2000/svg">
<path id="Vector" d="M0.751905 16.314C1.76301 11.5645 2.46148 7.40423 5.55089 4.28692C11.2439 -1.6015 20.9856 -1.03557 26.595 5.0391C30.2309 8.8576 33.6588 12.6411 35.6293 17.4633C36.8742 20.2388 37.4981 20.3435 40.3082 18.8903C45.4076 16.5382 50.4387 13.3191 55.8493 11.6608C66.4276 8.51739 75.9265 9.25639 81.876 20.949C83.9512 25.1471 83.564 30.0013 81.1668 34.0903C78.4918 38.5605 75.8868 42.6146 71.4796 45.9384C65.4071 50.266 60.5459 56.2941 55.1657 61.5934C50.549 66.1654 45.7593 70.4943 41.1427 75.0663C38.8169 77.4563 35.6607 78.4237 32.8506 79.8769C31.671 80.5344 29.9373 80.6711 28.4465 80.6347C26.5049 80.7366 26.4382 78.5865 25.295 77.753C24.1868 76.7114 23.0785 75.6699 21.9703 74.6283C15.113 68.3442 10.3719 60.9182 6.42941 52.5568C3.10933 45.5831 1.9739 38.3346 0.66534 30.8431C0.0125854 25.8143 0.2266 20.7172 0.751905 16.314Z" fill="#FFC192"/>
</svg>
