<svg width="51" height="47" viewBox="0 0 51 47" fill="none" xmlns="http://www.w3.org/2000/svg">
<g id="Group">
<path id="Vector" d="M0.0127676 14.6C0.148951 13.238 0.0128673 11.7397 0.285234 10.3777C0.829969 7.38119 2.05559 4.65707 4.50689 2.61399C5.86873 1.52435 7.09441 0.434708 9.13716 0.570913C9.95427 0.707118 10.9074 0.29852 11.7245 0.162314C15.6738 -0.518711 18.9423 0.979528 21.5298 3.97604C22.4831 5.06568 23.4364 6.0191 24.3897 7.10874C25.8877 9.01561 26.0239 9.15178 27.6581 7.24491C28.7476 6.01907 29.837 4.92948 31.1988 3.97604C35.6929 0.707118 40.5956 1.25194 45.2258 3.29502C46.9962 4.11225 48.358 5.8829 49.3113 7.78977C52.3073 14.3276 51.354 18.8224 46.3152 24.4068C45.0895 25.7689 44.1362 27.4033 42.9106 28.7654C40.3231 31.7619 37.7357 34.7584 35.012 37.6187C31.3351 41.4325 25.8877 42.1135 22.2107 45.791C21.1213 46.7445 19.4871 46.472 18.1252 46.8806C17.7167 47.0168 17.3081 46.7444 17.0357 46.3358C11.7246 40.479 6.41336 34.7584 2.87259 27.5395C0.829836 23.1809 -0.123416 19.3672 0.0127676 14.6ZM33.3777 9.01565C35.4205 9.01565 37.0547 7.78975 38.9612 7.51734C39.3698 7.38113 39.6421 7.10871 39.6421 6.56389C39.506 6.01907 39.0975 5.74666 38.6889 5.88286C36.7824 6.70009 34.331 6.70016 33.3777 9.01565ZM21.3937 38.9808C22.6193 38.4359 23.0279 37.4825 23.4364 36.8014C23.7088 36.3928 23.7087 35.9843 23.3001 35.5756C22.8916 35.3032 22.4831 35.4394 22.2107 35.848C21.5298 36.6652 20.7128 37.4825 21.3937 38.9808ZM16.8996 8.33462C16.6272 7.92601 16.3548 7.38112 15.6739 7.24491C15.2653 7.10871 14.8568 7.24498 14.7207 7.65359C14.4483 8.60703 15.2653 8.60701 15.81 8.74322C16.2186 9.01563 16.491 8.87944 16.8996 8.33462Z" fill="#FFC192"/>
<path id="Vector_2" d="M33.3789 9.15179C34.3322 6.70009 36.6473 6.70011 38.6901 6.01908C39.0986 5.88288 39.5071 6.15529 39.6433 6.70011C39.7795 7.24493 39.5071 7.51736 38.9624 7.65356C37.0558 7.92597 35.4217 9.15179 33.3789 9.15179Z" fill="#FFC192"/>
<path id="Vector_3" d="M21.3929 38.9814C20.712 37.4832 21.529 36.6659 22.2099 35.8487C22.4823 35.44 22.8908 35.3039 23.2993 35.5763C23.7079 35.8487 23.708 36.3935 23.4356 36.8021C22.8909 37.6193 22.4823 38.4366 21.3929 38.9814Z" fill="#FFC192"/>
<path id="Vector_4" d="M16.899 8.33461C16.6267 9.01564 16.218 9.01559 15.8095 8.87938C15.2648 8.60697 14.4478 8.60699 14.7201 7.78976C14.8563 7.38114 15.2648 7.24495 15.6733 7.38116C16.2181 7.38116 16.6267 7.78979 16.899 8.33461Z" fill="#FFC192"/>
<path id="Vector_5" d="M33.3783 9.01562C33.3783 9.01562 33.3784 9.1518 33.2422 9.1518C33.3784 9.1518 33.3783 9.15183 33.3783 9.01562Z" fill="#FFC192"/>
</g>
</svg>
