<svg width="82" height="75" viewBox="0 0 82 75" fill="none" xmlns="http://www.w3.org/2000/svg">
<g id="Group">
<path id="Vector" d="M29.3071 0.595476C31.3755 0.593411 32.7539 0.247245 34.1332 0.590657C38.6154 1.27576 39.9981 5.0671 36.8986 8.1733C28.2899 17.836 21.751 28.8758 15.2121 39.9156C12.459 44.7454 7.97823 45.4394 2.80377 41.9967C-0.300558 40.2758 -0.994805 35.4495 1.75928 31.654C5.20181 26.8235 7.26466 21.3049 11.3973 17.1633C15.5297 12.6769 16.9025 6.4693 22.4144 2.67112C24.1367 1.29024 26.2031 -0.780582 29.3071 0.595476Z" fill="#FFC192"/>
<path id="Vector_2" d="M48.9919 36.4341C46.5788 36.4366 43.4765 36.7844 42.0948 34.0275C40.7128 30.9257 42.0895 28.5109 44.1555 26.0953C51.0422 18.1583 58.2734 9.87602 65.5053 2.28343C69.6376 -2.20296 74.8124 1.58464 79.2926 0.201009C81.0156 -0.49029 81.7123 6.74953 79.3019 9.51025C76.8911 11.9262 75.1709 15.3759 72.4151 17.4473C67.2482 21.59 63.8062 27.11 59.3298 32.2863C55.5415 36.0828 54.5077 36.4286 48.9919 36.4341Z" fill="#FFC192"/>
<path id="Vector_3" d="M57.9935 74.0072C55.2356 74.01 52.4783 74.7022 50.7512 71.2561C49.0244 68.1547 50.0563 65.7401 52.1219 62.9798C56.2539 58.1486 60.3858 53.3174 64.5182 48.831C67.6177 45.7248 70.3728 42.9638 75.5449 43.993C77.6136 44.3357 80.0259 43.2989 81.0625 45.7114C82.4442 48.4683 82.1017 50.8822 80.0357 53.2978C76.5921 57.0939 73.1489 61.2348 69.7054 65.031C68.3278 66.4115 66.6056 67.7923 65.9178 69.517C64.8881 74.0003 61.4411 74.3485 57.9935 74.0072Z" fill="#FFC192"/>
</g>
</svg>
