<svg width="37" height="47" viewBox="0 0 37 47" fill="none" xmlns="http://www.w3.org/2000/svg">
<g id="Vector">
<path d="M19.0957 46.9068C19.0957 46.9068 18.7122 46.8108 18.3287 46.8108C17.1783 47.0026 16.7949 46.3313 16.5073 45.2763C15.7404 42.399 14.8776 39.6176 13.6313 36.8362C12.4809 34.2466 10.7553 32.0407 8.55033 30.2184C7.30406 29.1633 6.05783 28.1083 4.81156 26.9574C3.85289 26.0942 2.99008 25.327 1.74381 25.1351C-0.17352 24.9433 0.593402 23.2169 0.114069 22.2578C-0.365265 21.2028 0.785124 21.011 1.36032 20.7232C1.93552 20.4355 2.51077 20.1478 3.08597 20.1478C5.29091 20.1478 7.20824 19.1887 8.83798 17.75C11.2346 15.5441 12.9602 12.9545 14.2065 9.88539C15.261 7.1999 16.2197 4.61033 16.4114 1.73302C16.5073 0.869832 16.8907 -0.0892585 17.8494 0.00665172C18.9039 0.102562 20.2461 0.00667512 20.8213 1.34942C21.2048 2.40443 21.4924 3.55532 21.78 4.61033C22.7387 8.25492 23.218 11.8995 24.2725 15.5441C24.656 16.8869 25.327 18.1337 25.9981 19.2846C27.3402 21.6823 30.0245 22.8333 32.8047 22.1619C33.9551 21.8741 34.9137 22.2578 35.8723 22.8333C37.3103 23.7924 37.4062 24.6556 35.9683 25.6147C34.0509 26.8615 32.1336 28.0124 30.0245 29.0674C24.9436 31.5611 21.8759 35.3016 21.78 41.1521C21.78 42.5908 21.3965 44.0294 21.1089 45.4681C20.9172 46.4272 20.6295 47.2904 19.0957 46.9068ZM6.15366 23.3128C10.947 27.1492 15.1652 30.6979 18.0412 35.8771C19.9585 30.7938 23.7932 27.9165 28.7782 25.4229C25.9022 25.0392 24.4642 23.4088 22.8345 21.9701C22.0676 21.2987 21.3965 20.3396 21.1089 19.2846C20.4378 17.1746 19.4792 15.1605 19.1916 12.9545C19.0957 12.475 19.1915 11.8995 18.3287 11.6118C17.5626 12.8574 16.7964 14.1987 16.0302 15.5402C16.0295 15.5415 16.0287 15.5428 16.028 15.5441C13.823 19.1887 11.2346 22.3537 6.15366 23.3128Z" fill="#FFC192"/>
<path d="M6.15366 23.3128C10.947 27.1492 15.1652 30.6979 18.0412 35.8771C19.9585 30.7938 23.7932 27.9165 28.7782 25.4229C25.9022 25.0392 24.4642 23.4088 22.8345 21.9701C22.0676 21.2987 21.3965 20.3396 21.1089 19.2846C20.4378 17.1746 19.4792 15.1605 19.1916 12.9545C19.0957 12.475 19.1915 11.8995 18.3287 11.6118C17.5626 12.8574 16.7964 14.1987 16.0302 15.5402L16.028 15.5441C13.823 19.1887 11.2346 22.3537 6.15366 23.3128Z" fill="#FFC192"/>
</g>
</svg>
