<svg width="41" height="47" viewBox="0 0 41 47" fill="none" xmlns="http://www.w3.org/2000/svg">
<g id="Group">
<path id="Vector" d="M24.7613 36.0305C24.4524 36.8028 24.1436 37.4205 23.9891 38.1928C23.6803 38.5018 23.3714 38.6562 23.3714 38.9651C23.2169 40.5098 23.6803 42.6724 21.9815 42.9813C20.2827 43.2902 19.8193 45.1436 18.275 44.9892C17.8117 41.7455 16.5761 38.6563 15.6495 35.4127C14.7229 32.3234 13.0241 30.4699 9.47207 30.0065C6.22891 29.5431 3.29465 28.3073 0.823669 25.836C-0.411823 24.6003 -0.257405 23.5191 1.28696 22.7468C4.22125 21.3566 7.00109 19.6576 10.2443 18.7308C13.1785 17.9585 14.5685 15.4871 14.8773 12.5524C15.3407 9.15423 16.7306 6.21955 17.6572 2.97587C17.9661 2.04911 18.2749 1.12238 19.2015 0.504536C19.6649 0.195614 19.9738 -0.113383 20.5915 0.0410778C22.7536 0.35 24.9158 2.97591 24.7613 5.13836C24.6069 8.22758 25.2246 11.1622 25.9968 14.097C26.6145 16.105 27.6956 16.8772 29.3944 17.3406C32.6376 18.2674 35.8807 19.1943 39.1239 20.7389C40.8227 21.6656 40.8227 22.5924 40.205 23.9825C39.7416 25.0637 38.815 25.9905 37.8884 26.2994C35.5719 26.9173 33.873 28.6164 31.5565 29.0798C29.3944 29.5432 27.85 30.7787 26.769 32.7867C25.6879 32.9412 25.0702 33.559 24.4524 34.3313C23.8347 35.2581 23.9891 35.7216 24.7613 36.0305Z" fill="#FFC192"/>
<path id="Vector_2" d="M17.9648 44.8354C19.6636 44.9898 20.127 43.1362 21.6714 42.8273C23.5246 42.5184 23.0612 40.356 23.0612 38.8114C23.0612 38.5024 23.5246 38.348 23.679 38.0391C24.4512 40.2015 24.1423 42.3641 23.3701 44.5265C22.9068 45.9167 22.1346 46.5345 20.5903 46.9979C18.5826 47.4613 18.1193 46.6889 17.9648 44.8354Z" fill="#FFC192"/>
<path id="Vector_3" d="M24.761 36.0306C23.9888 35.7216 23.8344 35.2582 24.2977 34.6404C24.761 33.8681 25.5332 33.0958 26.6143 33.0958C26.6143 34.3315 25.3788 35.1038 24.761 36.0306Z" fill="#FFC192"/>
</g>
</svg>
