<svg width="81" height="94" viewBox="0 0 81 94" fill="none" xmlns="http://www.w3.org/2000/svg">
<g id="Group">
<path id="Vector" d="M33.1832 25.2933C33.1832 24.4496 32.9722 23.6059 33.8158 23.1841C36.5574 22.3404 36.5574 22.3403 38.0337 24.8714C39.0881 23.184 38.8772 21.4966 39.299 19.8092C39.7208 17.278 42.6733 19.1764 43.7278 17.489C41.1971 15.8016 41.197 15.8016 38.8772 16.6453C37.8227 17.0671 37.401 16.4344 36.9792 15.8016C36.9792 15.1689 37.1901 14.747 37.1901 14.1143C38.0336 14.1143 38.8772 14.1143 38.8772 13.0596C38.8772 12.4269 38.0337 12.2159 37.401 12.005C37.1901 10.7394 37.8228 9.89569 38.4555 9.05198C42.4624 8.20828 42.4623 7.9973 43.095 3.9897C45.8366 2.93507 48.1565 4.83341 50.8981 5.04433C53.4288 8.841 53.0071 13.4814 53.8506 17.6999C54.9051 23.8168 55.5377 29.9336 56.1704 36.0505C56.5922 39.4253 56.5922 39.4253 60.1774 39.8471C65.8715 40.4799 71.5656 40.2691 77.0488 41.5347C80.0013 42.1674 80.8449 43.6438 79.7904 46.5968C79.1577 48.0733 78.3142 49.3389 77.0488 50.1826C72.1983 53.3465 67.3478 56.7213 62.2863 59.6743C59.7556 61.1507 58.7011 62.8382 58.912 65.7912C59.5447 72.1189 59.5447 78.4467 60.8101 84.7745C60.8101 85.1964 60.8101 85.829 60.8101 86.2509C60.8101 88.5711 61.2318 91.1023 58.912 92.7897C57.2248 93.8443 51.7416 93.2115 49.8436 91.524C46.4693 88.5711 42.8842 86.04 40.5644 81.8215C37.6119 76.5483 35.292 76.3374 30.4415 80.1341C28.3325 81.8215 26.0127 83.298 24.1147 84.9854C19.475 88.7821 18.2097 88.993 12.3047 86.4619C12.3047 84.3526 12.9375 82.6651 14.2028 80.9777C16.9444 76.9701 16.9444 72.1189 18.6315 67.6894C18.8424 66.8457 18.8424 66.002 19.2642 65.1583C22.2167 59.8851 19.686 56.9322 15.8899 53.3465C12.0939 49.7607 7.24326 46.8078 5.13434 41.5347C4.71255 40.691 3.4473 40.0582 2.60373 39.4254C2.18194 36.4724 2.60368 34.1522 5.97796 33.0976C6.61064 32.8867 7.0324 32.2538 7.66507 31.832C8.71954 31.6211 9.774 31.6211 10.8285 32.2539C13.781 34.3631 16.9444 34.9959 20.3186 34.3631C22.8493 34.3631 25.591 34.574 28.1217 35.4177C28.3326 35.8396 28.3326 36.6833 28.5435 36.6833C29.3871 36.6833 28.9653 35.8396 29.1762 35.4177C29.5979 35.2068 29.8088 34.7849 30.2306 34.574C32.5504 34.574 31.7069 32.0429 32.7614 31.4101C35.503 29.5118 34.6594 27.6135 33.1832 25.2933Z" fill="#FFC192"/>
<path id="Vector_2" d="M43.0945 3.98966C42.4618 7.99725 42.251 8.20823 38.455 9.05194C38.8767 6.3099 39.7203 3.56791 41.6183 1.45865C42.251 0.614942 43.0945 -0.439765 44.149 0.193013C46.6797 1.45857 50.054 1.45854 50.8975 5.04429C48.1559 4.83336 45.8361 2.93503 43.0945 3.98966C42.8836 3.56781 42.6728 3.35693 42.6728 3.77878L43.0945 3.98966Z" fill="#FFC192"/>
<path id="Vector_3" d="M36.7669 15.8018C37.1887 16.4345 37.6105 17.0672 38.665 16.6454C40.9848 15.8017 40.9848 15.8017 43.5155 17.4891C42.6719 19.3875 39.5086 17.2782 39.0868 19.8093C38.8759 21.4967 38.8758 23.3951 37.8214 24.8716C36.3451 22.3404 36.3451 22.3405 33.6035 23.1842C34.4471 20.6531 34.2362 17.7001 36.7669 15.8018Z" fill="#FFC192"/>
<path id="Vector_4" d="M7.66456 31.832C7.24277 32.2539 6.61012 32.8867 5.97744 33.0977C2.81405 34.1523 2.18142 36.6834 2.60321 39.4254C0.494281 38.3708 0.494255 36.0506 0.0724694 34.3632C-0.349316 32.4648 1.12686 30.7775 3.02489 30.5665C4.50114 30.3556 6.3992 29.9337 7.66456 31.832Z" fill="#FFC192"/>
<path id="Vector_5" d="M33.1829 25.2935C34.6592 27.4027 35.7135 29.512 32.5501 31.1994C31.4957 31.8321 32.3394 34.3633 30.0195 34.3633C30.8631 31.4103 30.8631 28.0355 33.1829 25.2935Z" fill="#FFC192"/>
<path id="Vector_6" d="M20.3181 34.1522C16.9438 34.785 13.5695 34.1522 10.8279 32.043C14.6239 32.043 17.9982 32.6757 20.3181 34.1522Z" fill="#FFC192"/>
<path id="Vector_7" d="M37.4004 12.2158C38.0331 12.2158 38.6657 12.4267 38.8766 13.2705C38.8766 14.3251 37.8221 14.3251 37.1895 14.3251C37.1895 13.4814 37.1895 12.8486 37.4004 12.2158Z" fill="#FFC192"/>
<path id="Vector_8" d="M28.9647 35.2068C28.7538 35.6286 29.1755 36.4723 28.332 36.4723C28.1211 36.4723 28.1212 35.6286 27.9103 35.2068C28.3321 35.2068 28.543 35.2068 28.9647 35.2068Z" fill="#FFC192"/>
<path id="Vector_9" d="M43.0936 3.98958C42.8827 3.98958 42.6719 3.7787 42.6719 3.7787C42.8828 3.56778 42.8827 3.56773 43.0936 3.98958Z" fill="#FFC192"/>
</g>
</svg>
