<svg width="1920" height="42" viewBox="0 0 1920 42" fill="none" xmlns="http://www.w3.org/2000/svg">
<path d="M0 0H480H960H1920L1914.42 6.56099C1875.25 52.5808 1804.31 52.9581 1764.66 7.35731V7.35731C1762.2 4.52722 1757.8 4.5304 1755.34 7.36049V7.36049C1715.56 53.1022 1644.48 53.1534 1604.71 7.41176V7.41176C1602.22 4.55292 1597.78 4.55383 1595.29 7.41269V7.41269C1555.53 53.1461 1484.48 53.1472 1444.71 7.41393V7.41393C1442.22 4.55747 1437.78 4.5635 1435.31 7.42766V7.42766C1395.79 53.1607 1324.54 52.8989 1284.74 7.41146V7.41146C1282.24 4.56561 1277.79 4.54238 1275.31 7.39592V7.39592C1235.53 53.146 1164.47 53.1459 1124.69 7.39593V7.39593C1122.21 4.5424 1117.76 4.5656 1115.26 7.41147V7.41147C1075.46 52.8991 1004.21 53.1607 964.69 7.42766V7.42766C962.215 4.5635 957.776 4.55748 955.292 7.41394V7.41394C915.524 53.1472 844.475 53.1459 804.707 7.4127V7.4127C802.221 4.55385 797.78 4.55291 795.294 7.41176V7.41176C755.519 53.1535 684.481 53.1533 644.706 7.41176V7.41176C642.22 4.55291 637.779 4.55384 635.293 7.41269V7.41269C595.525 53.146 524.463 53.1323 484.695 7.39902V7.39902C482.218 4.55092 477.792 4.55599 475.324 7.41176V7.41176C435.84 53.1042 364.818 52.9652 325.192 7.39552V7.39552C322.718 4.55039 318.274 4.5444 315.791 7.38188V7.38188C275.832 53.0494 204.478 53.1499 164.66 7.35922V7.35922C162.197 4.52681 157.798 4.51678 155.326 7.34157V7.34157C115.419 52.9505 44.277 52.3526 5.14151 6.07925L0 0Z" fill="#81B769"/>
</svg>
