<svg width="117" height="105" viewBox="0 0 117 105" fill="none" xmlns="http://www.w3.org/2000/svg">
<g id="Group">
<path id="Vector" d="M27.4617 75.8805C25.8228 75.0693 24.1651 74.0838 22.4129 73.5316C20.4017 72.8662 18.8809 71.5134 17.2282 70.2452C15.9616 69.2881 14.4734 68.5665 13.4471 67.5484C12.143 66.2427 10.2164 65.7092 9.22357 64.0174C8.0613 62.0618 5.83836 61.0665 4.16691 59.624C3.82317 59.3788 3.41345 59.1761 3.15932 58.7802C2.20391 57.437 1.63455 56.405 3.63289 55.3085C6.59741 53.685 8.68629 51.1328 10.7328 48.5147C11.3789 47.6342 12.091 46.7112 12.8454 45.8542C14.2882 44.1827 16.0689 44.3439 16.9909 46.3607C18.4349 49.6262 20.7131 52.4493 23.1942 54.8627C25.7176 57.3421 28.2362 60.1041 31.4717 61.6606C32.9599 62.3822 34.4245 63.2122 35.9787 63.8914C37.7919 64.6839 39.6948 65.3256 41.4844 66.2264C44.6776 67.7169 46.6888 68.3823 50.0336 68.6574C50.9239 68.738 51.767 69.0353 52.5914 69.1583C55.2152 69.6167 57.8351 69.0529 60.3653 68.6398C63.3762 68.1045 66.4057 67.7435 69.3368 66.7935C74.2376 65.1381 78.9316 62.8701 83.1174 59.8104C84.1968 59.0243 85.1068 57.9743 86.1015 57.0562C88.2466 55.0271 90.4576 52.9555 92.6687 50.884C91.7931 49.9554 91.1577 48.9658 90.1216 48.5129C88.9347 47.9705 88.8274 46.642 88.1261 45.6947C87.8296 45.2329 88.3575 44.8939 88.7298 44.7481C94.5308 42.6079 100.308 40.5762 106.152 38.502C106.284 38.4173 106.392 38.4409 106.524 38.3562C107.245 38.1728 108.187 37.7541 108.611 38.4139C109.053 39.248 109.887 40.1106 109.386 41.3634C108.367 43.6947 108.04 46.2337 107.388 48.7019C106.642 51.6034 105.938 54.5708 104.649 57.3542C104.13 58.4327 103.409 58.6161 102.421 57.9465C101.347 57.1451 100.231 56.2776 99.1811 55.3678C97.9804 54.3684 97.8061 54.3871 96.6745 55.6726C94.5856 58.2247 92.539 60.8427 90.0217 63.0177C88.3435 64.4677 86.5569 65.8942 84.6856 67.1886C82.8803 68.4407 81.3951 70.0462 79.251 70.7705C75.5361 74.2733 70.6451 75.3634 66.088 77.264C64.3348 78.0168 62.4547 78.5716 60.6169 79.1924C57.1156 80.4152 53.5443 80.6581 49.8883 80.7691C47.6693 80.7961 45.4926 80.8891 43.3209 80.6994C42.3182 79.5729 42.2522 79.6153 40.4095 80.5188C40.113 80.0569 39.9485 79.5104 39.4964 79.2416C39.1852 79.6277 39.3733 80.0659 39.4108 80.4145C39.0385 80.5603 38.6002 80.7486 38.2565 80.5034C38.0023 80.1076 37.6113 80.079 37.2154 80.3332C36.9987 80.286 36.848 80.1964 36.6313 80.1492C36.2689 79.7297 35.9862 79.7248 35.609 80.1532C35.543 80.1956 35.3687 80.2144 35.3264 80.1484C34.7285 79.5074 34.7668 78.551 34.4329 77.7406C33.2353 79.0683 33.127 79.0448 32.5862 77.6218C32.5015 77.4898 32.4404 77.2495 32.398 77.1835C31.7716 76.9335 31.0832 77.7481 30.509 76.9987C29.789 75.8771 28.5687 76.0084 27.4617 75.8805ZM36.6746 78.9102C36.8066 78.8255 36.9622 78.6324 36.7692 78.4768C36.5761 78.3212 36.3407 78.0997 36.1428 78.2268C35.8365 78.3303 35.9399 78.6365 36.067 78.8345C36.194 79.0324 36.4343 78.9713 36.6746 78.9102Z" fill="#FFC192"/>
<path id="Vector_2" d="M27.4624 75.881C28.5931 75.9005 29.7897 75.8776 30.5993 76.8485C31.2159 77.6638 31.862 76.7833 32.4884 77.0333C32.5731 77.1652 32.5918 77.3395 32.6765 77.4715C33.3256 78.9181 33.434 78.9418 34.5232 77.5903C34.8571 78.4008 34.8188 79.3571 35.4167 79.9982C34.6534 80.1155 33.961 79.9078 33.2922 79.5918C31.3096 78.5354 29.2185 77.4554 27.4624 75.881Z" fill="#FFC192"/>
<path id="Vector_3" d="M40.5848 80.5013C42.3852 79.5319 42.4935 79.5554 43.4962 80.6819C42.5162 80.752 41.5077 81.2132 40.5848 80.5013Z" fill="#FFC192"/>
<path id="Vector_4" d="M39.5858 80.3958C39.506 79.9812 39.3602 79.609 39.6714 79.2229C40.0999 79.6 40.3304 80.1042 40.5845 80.5001C40.2122 80.6459 39.9295 80.641 39.5858 80.3958Z" fill="#FFC192"/>
<path id="Vector_5" d="M37.3479 80.2478C37.7439 79.9937 38.1349 80.0222 38.389 80.418C37.9931 80.6722 37.6444 80.7097 37.3479 80.2478Z" fill="#FFC192"/>
<path id="Vector_6" d="M35.7417 80.0692C36.0529 79.683 36.4439 79.7116 36.764 80.0651C36.4765 80.3429 36.1278 80.3803 35.7417 80.0692Z" fill="#FFC192"/>
<path id="Vector_7" d="M36.6751 78.9102C36.4772 79.0373 36.1945 79.0324 36.0251 78.7685C35.8981 78.5706 35.7946 78.2644 36.1009 78.1609C36.3413 78.0998 36.5343 78.2553 36.7273 78.4109C36.9627 78.6324 36.8307 78.7172 36.6751 78.9102Z" fill="#FFC192"/>
</g>
</svg>
