<svg width="78" height="97" viewBox="0 0 78 97" fill="none" xmlns="http://www.w3.org/2000/svg">
<g id="Group">
<path id="Vector" d="M21.497 44.3789C21.5592 44.1684 21.5161 43.9268 21.5472 43.8216C21.9013 43.0108 22.3295 42.3364 23.3698 42.3006C24.0633 42.2768 24.1878 41.8558 24.1329 41.2675C24.0469 40.7843 23.9608 40.3012 23.162 40.2939C22.71 40.2748 22.3944 40.1815 21.9424 40.1623C21.7512 39.6481 21.9068 39.1219 22.1364 38.7321C23.1886 39.0431 24.3459 39.3852 24.9178 37.8378C25.2599 36.6802 24.7101 35.8311 23.1941 35.1541C23.0888 35.123 22.8784 35.0608 22.6369 35.1038C22.6991 34.8933 22.7613 34.6829 22.8235 34.4724C23.7705 34.7523 23.4813 33.4081 23.8281 33.3962C24.6387 33.7502 23.9067 34.6782 24.8107 34.7165C27.42 32.856 26.3276 30.3589 25.8976 27.9432C28.1575 28.0391 28.1575 28.0391 28.7796 25.9344C28.8107 25.8292 28.8418 25.7239 28.8418 25.7239C28.7009 24.6524 28.9498 23.8105 30.0834 23.459C31.0806 23.1817 32.0467 23.0095 33.1419 23.5621C33.8162 23.9903 34.5527 24.208 35.2581 24.5309C35.4064 24.8036 35.5547 25.0763 35.7029 25.349C35.8822 25.5164 36.0616 25.6839 36.1668 25.715C36.5876 25.8394 36.841 26.1431 36.9581 26.5211C36.9316 27.7719 36.4651 29.3504 38.4212 29.6998C38.5383 30.0777 38.7606 30.4867 38.8777 30.8646C38.9207 31.1062 38.7964 31.5271 39.0068 31.5893C40.2502 32.4146 40.5274 33.4119 40.0178 34.7489C39.9245 35.0646 40.252 35.5047 40.2328 35.9567C40.2136 36.4088 39.7854 37.0832 40.6893 37.1216C41.3828 37.0977 41.7799 36.5285 41.6509 35.8038C41.5649 35.3206 40.8906 34.8924 41.4981 34.3854C42.8183 33.4025 42.8211 31.4581 44.5622 30.5996C43.1395 29.6069 42.8695 27.8107 41.1238 27.5235C41.3535 27.1337 41.6143 26.6387 41.7387 26.2177C42.4011 26.2991 43.1687 26.4116 43.8384 25.6941C43.2071 25.5075 42.8174 25.2778 42.2913 25.1223C42.4468 24.5961 42.5712 24.1752 42.832 23.6802C44.0205 23.917 44.8503 23.819 45.0753 22.2835C45.2382 20.9585 46.2117 19.9876 47.0799 18.9855C47.4148 18.6268 48.0342 18.4666 48.0845 17.9093C48.3095 16.3738 49.4121 16.1276 50.6939 16.0488C50.6555 16.9528 51.2987 17.4863 51.7004 18.0627C52.3866 18.8377 53.7425 18.8952 54.0225 17.9481C54.6254 16.2954 55.6967 16.1544 57.0526 16.2119C57.9877 16.145 58.8799 15.8366 59.7097 15.7386C60.3959 16.5135 59.9485 17.6401 60.8332 18.1304C61.0125 18.2979 61.2971 18.4964 61.0986 18.781C59.4865 20.3642 60.438 21.7898 61.2843 23.1842C61.4325 23.4569 61.5186 23.94 61.32 24.2246C60.8178 24.7627 60.6576 24.1432 60.4042 23.8395C60.2559 23.5668 59.9833 23.7151 59.7107 23.8634C57.0272 25.5876 56.4864 27.0297 57.5908 29.8736C57.1004 30.7585 53.9008 29.5839 55.8661 32.2245C56.1196 32.5283 55.5432 32.9301 55.3136 33.3199C54.8543 34.0996 54.7729 34.7621 55.3539 35.506C55.5332 35.6734 55.7555 36.0824 55.8177 35.872C56.643 34.6283 58.4866 35.7454 59.2066 34.4706C59.6156 34.2482 59.8883 34.1 60.2972 33.8776C60.8974 34.1694 61.4665 34.5666 62.1051 33.9543C63.0832 34.129 63.9872 34.1673 64.8792 33.8588C65.226 33.8469 65.6468 33.9714 65.9936 33.9594C66.9836 34.4809 67.8994 34.8661 68.8894 35.3876C68.9635 35.5239 69.0376 35.6602 68.9754 35.8706C68.839 35.9448 68.4923 35.9567 68.4612 36.0619C68.1812 37.009 67.6909 37.894 67.3057 38.81C66.8894 39.8312 66.0834 40.6228 65.8345 41.4647C65.2627 43.0121 64.0385 41.7348 63.431 42.2418C62.6872 42.8229 62.1968 43.7079 62.5792 44.7364C63.4951 45.1215 63.689 43.6912 64.1529 44.0572C65.3963 44.8825 67.1804 44.2655 68.1631 45.5859C67.0579 47.7766 65.6681 49.7688 63.7403 51.2587C61.2051 53.2556 58.9232 55.5563 55.9552 57.082C55.5462 57.3044 55.1684 57.4215 54.8336 57.7802C54.3313 58.3183 53.9031 58.9928 55.0605 59.3349C55.3761 59.4282 55.6918 59.5215 56.1126 59.6459C58.8172 60.5598 59.7998 61.8801 59.9691 64.7909C60.0524 67.2185 59.3251 69.2921 57.756 71.1169C55.1512 74.1231 52.0396 76.5217 48.6004 78.4803C44.7522 80.6612 40.861 82.6006 36.7786 84.0258C36.1592 84.186 35.4346 84.3151 34.7841 84.5805C33.2488 84.3555 31.6943 84.5826 30.2881 85.0823C29.5324 85.3167 28.6714 85.5199 27.9156 85.7542C27.2843 85.5676 26.6531 85.381 25.8974 85.6154C24.5963 86.1462 23.6804 85.761 23.8003 84.1945C23.8506 83.6372 23.4608 83.4075 23.0399 83.2831C22.093 83.0032 21.072 82.587 20.2778 83.7254C19.7133 84.474 18.4195 84.206 18.1661 83.9022C17.0901 82.8976 15.7918 81.4839 16.4067 80.1781C17.22 78.5876 15.9025 77.6261 15.9912 76.1647C16.1614 74.0409 13.8128 75.4064 12.7798 74.6433C12.4953 74.4448 12.1796 74.3514 11.864 74.2581L11.6847 74.0907C11.6728 73.7439 11.6609 73.3971 11.2711 73.1675C11.3023 73.0622 11.2591 72.8207 11.2902 72.7154C12.0268 72.9331 12.7515 72.8041 13.2849 72.1608C13.5383 72.4645 13.8228 72.663 14.0762 72.9668C14.2244 73.2395 14.2053 73.6915 14.6454 73.3639C14.4661 73.1964 14.2555 73.1342 14.0762 72.9668C14.863 72.6272 15.767 72.6656 16.5109 72.0844C16.3864 72.5054 16.0946 73.1057 16.5585 73.4717C16.8119 73.7754 17.3261 73.5841 17.4194 73.2684C17.972 72.173 17.0058 72.3452 16.5109 72.0844C16.9271 71.0632 16.9034 70.3696 15.7652 69.5755C14.4166 68.7191 13.4028 67.504 13.6471 65.5165C13.7788 64.2967 13.8987 62.7301 12.3397 61.8115C11.8447 61.5508 12.1676 60.8453 12.3231 60.3191C12.6653 59.1615 12.4814 57.8484 12.3716 56.6717C12.1684 55.8106 11.5801 55.8656 10.9296 56.131C10.1739 56.3654 10.2911 56.7433 10.829 57.2456C11.1877 57.5805 11.4411 57.8843 11.1804 58.3793C10.7833 58.9485 10.2882 58.6878 9.82435 58.3218C9.28637 57.8195 8.65516 57.6329 7.91864 57.4152C7.90674 57.0684 7.99999 56.7526 7.98809 56.4058C8.18663 56.1212 8.38521 55.8367 8.55265 55.6573C9.9781 54.7055 8.89477 54.4997 8.08414 54.1456C8.07955 53 8.35953 52.0529 8.67059 51.0005C9.64134 51.9741 10.3394 53.0959 10.796 54.2607C11.7 54.2991 12.0541 53.4883 12.5372 53.4022C14.5436 53.1943 14.7256 51.4172 15.5509 50.1736C15.7494 49.889 15.7374 49.5422 15.3477 49.3126C14.8527 49.0518 14.3267 48.8963 13.8866 49.224C13.4776 49.4464 13.3532 49.8673 13.5756 50.2763C13.7979 50.6853 14.0943 51.2307 13.7284 51.6946C13.2142 51.8859 12.7192 51.6251 12.1931 51.4696C10.5096 50.972 10.3495 50.3525 11.5956 49.2333C12.2343 48.6211 12.5261 48.0208 12.7439 47.2841C13.129 46.3681 13.7054 45.9664 14.8628 46.3085C16.8619 46.8994 18.83 47.5956 20.3076 49.1766C20.8456 49.679 21.4457 49.9708 22.1584 49.4949C23.658 48.6794 23.5053 47.2611 23.4888 45.7687C23.5775 44.3073 22.3076 44.733 21.497 44.3789ZM53.4078 32.4133C52.3218 34.152 51.5084 35.7424 50.2001 37.0722C48.3583 39.0452 48.2769 39.7077 48.3913 42.0301C49.4965 39.8393 51.5606 38.2753 52.3813 35.886C52.5368 35.3598 52.6183 34.6973 53.1013 34.6113C54.8854 33.9944 53.7161 33.3054 53.4078 32.4133ZM41.6295 77.6785C42.2919 77.7599 42.5024 77.8221 42.6387 77.7479C45.1785 76.8967 46.6927 74.4835 49.1584 73.4959C49.4 73.4529 49.4932 73.1372 49.5865 72.8214C49.6488 72.611 49.6369 72.2642 49.4576 72.0968C49.2783 71.9294 48.9315 71.9413 48.7952 72.0154C46.2792 73.5603 44.0476 75.3037 41.6295 77.6785ZM55.8051 40.5598C57.8783 41.287 59.9038 40.6271 60.7794 38.8262C61.0402 38.3311 60.7438 37.7858 60.2296 37.9771C58.5818 38.5199 56.4894 38.2446 55.8051 40.5598ZM43.1642 38.4253C42.6381 38.2698 42.4707 38.4491 42.4085 38.6596C42.1908 39.3962 42.5806 39.6259 43.1066 39.7814C43.4223 39.8747 43.8742 39.8939 43.8935 39.4418C43.9438 38.8846 43.4799 38.5186 43.1642 38.4253ZM16.6433 52.6707C17.0953 52.6898 17.2627 52.5105 17.3249 52.3C17.5115 51.6686 17.0166 51.4078 16.4905 51.2523C16.1748 51.159 15.7228 51.1398 15.8088 51.623C15.926 52.0009 16.1172 52.5151 16.6433 52.6707Z" fill="#A6C4FF"/>
<path id="Vector_2" d="M59.4483 34.4282C58.6972 35.8082 56.8847 34.5859 56.0595 35.8295C55.8921 36.0089 55.7749 35.631 55.5956 35.4636C55.0146 34.7197 55.0959 34.0571 55.5552 33.2775C55.7849 32.8876 56.3613 32.4859 56.1079 32.1821C54.1426 29.5415 57.3421 30.7161 57.8325 29.8312C56.7282 26.9873 57.2688 25.5451 59.9523 23.8209C60.225 23.6726 60.4976 23.5244 60.6458 23.797C60.8992 24.1008 61.0905 24.615 61.5617 24.1822C61.8654 23.9287 61.6743 23.4144 61.5261 23.1418C60.7108 21.6421 59.7592 20.2165 61.3402 18.7385C61.644 18.485 61.3594 18.2865 61.0749 18.088C60.1901 17.5976 60.6375 16.4711 59.9513 15.6961C59.0904 15.8994 58.1984 16.2078 57.2944 16.1695C55.9074 16.2172 54.8359 16.3582 54.2641 17.9056C53.9841 18.8528 52.5971 18.9004 51.942 18.0202C51.4351 17.4127 50.8971 16.9103 50.9355 16.0063C49.6537 16.0851 48.5202 16.4367 48.3262 17.8669C48.2759 18.4242 47.6566 18.5843 47.3217 18.9431C46.4845 19.8399 45.4058 20.7798 45.3171 22.2411C45.092 23.7766 44.2622 23.8746 43.0737 23.6377C45.0975 19.8876 47.5851 16.5035 50.7471 13.5476C51.8569 12.5025 53.2512 11.6559 54.5404 10.7782C56.1021 9.7523 58.1204 9.89119 59.8899 10.872C59.029 11.0752 58.3163 11.5511 57.3693 11.2712C56.286 11.0654 55.3318 11.5844 54.8844 12.7108C54.1479 12.4931 53.4973 12.7585 52.8898 13.2655C52.586 13.519 52.3875 13.8036 52.5047 14.1815C52.5907 14.6646 52.9493 14.9995 53.4013 15.0187C53.7169 15.112 54.1259 14.8896 54.2192 14.5739C54.4058 13.9425 54.5615 13.4164 54.8533 12.8161C55.4965 13.3495 55.6374 14.421 56.8762 14.1006C58.3566 13.7372 59.7747 13.5842 60.8626 14.9356C61.1901 15.3757 61.7665 14.974 62.0584 14.3737C62.4436 13.4577 61.7619 13.8283 61.341 13.7039C59.9732 13.2996 59.4855 12.24 59.8899 10.872C63.2569 11.8672 64.3686 13.9122 64.0786 17.6027C63.7145 21.1568 62.4775 24.5673 61.1664 27.8415C60.5635 29.4941 59.8554 31.1157 59.0732 32.6009C58.4894 33.8015 58.8481 34.1364 59.4483 34.4282ZM58.2626 32.2469C58.1885 32.1106 58.2506 31.9001 58.1765 31.7637C57.892 31.5652 57.5453 31.5771 57.3467 31.8617C57.3156 31.9669 57.3586 32.2085 57.3586 32.2085C57.612 32.5123 57.9277 32.6056 58.2626 32.2469Z" fill="#A6C4FF"/>
<path id="Vector_3" d="M13.9704 72.937C13.717 72.6332 13.4324 72.4347 13.179 72.1309C12.232 71.851 11.2851 71.5711 10.3382 71.2912C8.77725 67.2825 8.00323 62.9342 7.57591 58.574C7.56401 58.2272 7.71944 57.701 7.84387 57.2801C8.47517 57.4667 9.21172 57.6844 9.74971 58.1867C10.1084 58.5216 10.7086 58.8135 11.1057 58.2443C11.4717 57.7803 11.1129 57.4454 10.7543 57.1105C10.1852 56.7135 10.0992 56.2303 10.8549 55.996C11.4743 55.8358 12.0938 55.6756 12.2969 56.5367C12.5119 57.7445 12.6218 58.9213 12.2485 60.1841C12.0929 60.7102 11.7699 61.4157 12.2649 61.6765C13.8239 62.595 13.7042 64.1617 13.5724 65.3815C13.3282 67.369 14.3418 68.584 15.6905 69.4404C16.965 70.1604 16.8836 70.8229 16.4362 71.9494C15.7976 72.5617 14.7573 72.5974 13.9704 72.937Z" fill="#A6C4FF"/>
<path id="Vector_4" d="M11.7266 74.3334C12.0422 74.4267 12.4631 74.5511 12.6425 74.7185C13.6754 75.4816 16.024 74.1161 15.8539 76.2399C15.7962 77.596 16.9774 78.6318 16.2693 80.2533C15.6545 81.5592 16.9528 82.9728 18.0288 83.9774C18.2822 84.2812 19.576 84.5492 20.1405 83.8006C20.9346 82.6622 21.9556 83.0785 22.9026 83.3584C23.3234 83.4828 23.7132 83.7124 23.6629 84.2697C23.512 85.9415 24.3225 86.2955 25.7599 85.6905C26.5467 85.351 27.147 85.6428 27.7783 85.8294C26.0683 86.5827 24.3702 87.6828 22.4406 86.0825C21.4387 85.2143 20.2191 85.0826 18.9802 85.403C17.983 85.6803 17.5191 85.3143 16.8329 84.5394C14.6023 81.2481 12.6873 78.0502 11.7266 74.3334Z" fill="#A6C4FF"/>
<path id="Vector_5" d="M35.2891 24.4257C34.5837 24.1027 33.8472 23.885 33.1729 23.4569C32.2141 22.8302 31.1116 23.0764 30.1143 23.3538C28.9807 23.7053 28.7319 24.5471 28.8728 25.6187C28.8417 25.7239 28.8106 25.8291 28.8106 25.8291C28.1885 27.9338 28.1885 27.9338 25.9286 27.838C26.3586 30.2537 27.451 32.7507 24.8417 34.6112C23.9688 34.4676 24.6697 33.645 23.859 33.2909C23.4071 33.2718 23.6962 34.616 22.8545 34.3672C23.4409 31.2221 24.1325 28.1081 25.7711 25.274C26.9505 23.2196 28.7657 22.4974 30.7602 21.9427C32.9652 21.4502 34.2946 22.7586 35.2891 24.4257ZM27.7392 25.9701C27.6651 25.8338 27.7273 25.6234 27.6532 25.487C27.548 25.4559 27.4117 25.53 27.2012 25.4678C27.2753 25.6042 27.2131 25.8146 27.2872 25.951C27.4665 26.1184 27.5718 26.1495 27.7392 25.9701Z" fill="#A6C4FF"/>
<path id="Vector_6" d="M68.2672 45.6175C67.2845 44.2972 65.5004 44.9141 64.257 44.0888C63.7931 43.7228 63.5992 45.1531 62.6833 44.768C62.4061 43.7706 62.7913 42.8545 63.5351 42.2734C64.1426 41.7664 65.3357 43.149 65.9386 41.4963C66.3238 40.5803 67.0246 39.7576 67.4098 38.8416C67.795 37.9256 68.2854 37.0407 68.5654 36.0936C68.5965 35.9883 68.8379 35.9453 69.0795 35.9023C69.9642 36.3926 70.1984 37.1485 70.16 38.0526C70.2863 40.7218 69.7502 43.3096 68.2672 45.6175Z" fill="#A6C4FF"/>
<path id="Vector_7" d="M12.8498 47.316C12.632 48.0527 12.3402 48.653 11.7015 49.2652C10.4554 50.3844 10.6155 51.0039 12.299 51.5015C12.8251 51.657 13.2149 51.8867 13.8343 51.7265C14.095 51.2315 13.9038 50.7172 13.6815 50.3082C13.4591 49.8992 13.4783 49.4472 13.9925 49.2559C14.5378 48.9593 14.9587 49.0838 15.4537 49.3445C15.8435 49.5741 15.8553 49.9209 15.6568 50.2055C14.8315 51.4491 14.6495 53.2262 12.6431 53.4341C12.0548 53.4891 11.7318 54.1946 10.9019 54.2926C10.4453 53.1278 9.74731 52.006 8.77655 51.0325C8.87718 49.9179 9.05184 48.9397 9.96311 48.1792C10.0683 48.2103 10.2047 48.1362 10.2047 48.1362C10.2358 48.031 10.2669 47.9257 10.3292 47.7152C10.3484 47.2632 10.578 46.8734 11.0611 46.7873C11.482 46.9117 12.1132 47.0983 12.8498 47.316Z" fill="#A6C4FF"/>
<path id="Vector_8" d="M12.8488 47.3157C12.2175 47.1291 11.5862 46.9425 10.8497 46.7248C11.4023 45.6294 12.2944 45.321 13.4087 45.4215C15.6375 45.6226 17.9596 45.508 19.6285 47.6033C20.3147 48.3783 21.1016 48.0388 21.3074 46.9553C21.4511 46.0823 21.1427 45.1902 21.602 44.4105C22.4126 44.7646 23.6514 44.4442 23.5627 45.9055C23.6103 47.2927 23.7631 48.7111 22.2324 49.6318C21.5197 50.1077 20.9194 49.8158 20.3815 49.3135C18.8727 47.8376 16.9047 47.1415 14.9367 46.4453C13.8104 45.998 13.234 46.3997 12.8488 47.3157ZM22.4885 47.991C22.5507 47.7806 22.6441 47.4649 22.3285 47.3716C22.3285 47.3716 22.0247 47.625 21.9936 47.7303C21.9313 47.9407 21.9122 48.3928 22.0174 48.4239C22.3331 48.5172 22.3211 48.1704 22.4885 47.991Z" fill="#A6C4FF"/>
<path id="Vector_9" d="M41.1966 27.6604C42.9423 27.9475 43.2123 29.7438 44.635 30.7364C42.925 31.4897 42.9223 33.4342 41.571 34.5224C40.9946 34.9241 41.5326 35.4265 41.7238 35.9407C41.958 36.6965 41.4558 37.2346 40.7622 37.2584C39.8272 37.3253 40.3916 36.5768 40.3056 36.0936C40.3248 35.6416 39.892 35.1704 40.0906 34.8858C40.4949 33.5177 40.2178 32.5204 39.0796 31.7262C38.9744 31.6951 38.9935 31.243 38.9505 31.0015C39.3284 30.8843 39.7063 30.7671 39.9478 30.7241C40.5361 30.6692 40.462 30.5328 40.1034 30.1979C40.5938 29.313 40.9478 28.5022 41.1966 27.6604Z" fill="#A6C4FF"/>
<path id="Vector_10" d="M22.667 34.9988C22.8774 35.061 23.0138 34.9869 23.2242 35.0491C24.7402 35.7261 25.2901 36.5752 24.9479 37.7328C24.4813 39.3113 23.3551 38.8639 22.1666 38.627C21.8774 37.2829 22.1144 36.0942 22.667 34.9988Z" fill="#A6C4FF"/>
<path id="Vector_11" d="M21.972 40.0577C22.424 40.0768 22.8448 40.2013 23.1916 40.1894C23.8851 40.1655 23.9712 40.6486 24.1625 41.1629C24.3226 41.7824 24.0929 42.1722 23.3994 42.196C22.3591 42.2318 21.9309 42.9063 21.5768 43.717C21.1513 42.447 21.7351 41.2463 21.972 40.0577Z" fill="#A6C4FF"/>
<path id="Vector_12" d="M30.182 85.0521C31.6935 84.5835 33.1426 84.3253 34.6779 84.5502C33.3265 85.6384 31.6861 85.3823 30.182 85.0521Z" fill="#A6C4FF"/>
<path id="Vector_13" d="M38.5275 29.7317C36.6024 29.2771 37.0379 27.8039 37.0645 26.553C38.3701 27.1678 37.9035 28.7462 38.5275 29.7317Z" fill="#A6C4FF"/>
<path id="Vector_14" d="M65.014 33.7852C64.153 33.9884 63.1127 34.0242 62.2399 33.8806C63.5171 32.6561 63.7275 32.7183 65.014 33.7852Z" fill="#A6C4FF"/>
<path id="Vector_15" d="M10.3379 71.2913C11.2848 71.5712 12.2318 71.8511 13.1787 72.131C12.6453 72.7743 11.9207 72.9034 11.1842 72.6857C10.584 72.3939 10.4239 71.7744 10.3379 71.2913Z" fill="#A6C4FF"/>
<path id="Vector_16" d="M68.9941 35.4189C68.0041 34.8974 67.0882 34.5123 66.0983 33.9908C67.4734 33.5963 68.4945 34.0125 68.9941 35.4189Z" fill="#A6C4FF"/>
<path id="Vector_17" d="M8.0832 54.1468C8.78861 54.4698 10.0083 54.6014 8.55171 55.6585C8.27906 55.8067 8.15459 56.2276 7.98716 56.407C7.33206 55.5268 7.76024 54.8524 8.0832 54.1468Z" fill="#A6C4FF"/>
<path id="Vector_18" d="M42.4694 25.2903C42.8903 25.4148 43.3853 25.6755 44.0166 25.8621C43.2728 26.4432 42.5793 26.4671 41.9169 26.3857C41.862 25.7973 42.1657 25.5438 42.4694 25.2903Z" fill="#A6C4FF"/>
<path id="Vector_19" d="M62.3471 33.9118C61.7084 34.524 61.1392 34.1269 60.539 33.8351C61.1154 33.4333 61.7158 33.7251 62.3471 33.9118Z" fill="#A6C4FF"/>
<path id="Vector_20" d="M11.166 73.137C11.5558 73.3666 11.5678 73.7135 11.5797 74.0603C11.1588 73.9358 11.0416 73.5579 11.166 73.137Z" fill="#A6C4FF"/>
<path id="Vector_21" d="M10.1166 47.6523C10.0855 47.7575 10.0544 47.8628 9.9922 48.0732C9.9922 48.0732 9.85594 48.1474 9.75072 48.1163C9.91815 47.9369 10.0855 47.7575 10.1166 47.6523Z" fill="#A6C4FF"/>
<path id="Vector_22" d="M36.3013 25.6419C36.1219 25.4745 35.9426 25.307 35.8374 25.2759C36.0789 25.2329 36.1531 25.3692 36.3013 25.6419Z" fill="#A6C4FF"/>
<path id="Vector_23" d="M40.2402 30.1233C40.5989 30.4582 40.6419 30.6997 40.0847 30.6495C40.1469 30.439 40.2091 30.2285 40.2402 30.1233Z" fill="#A6C4FF"/>
<path id="Vector_24" d="M53.4058 32.4142C53.8194 33.3375 54.9887 34.0264 53.2357 34.5381C52.7215 34.7294 52.64 35.3919 52.5156 35.8128C51.8002 38.2332 49.631 39.7662 48.5258 41.957C48.3061 39.6035 48.3875 38.9409 50.3345 36.999C51.5065 35.7434 52.3198 34.153 53.4058 32.4142Z" fill="#A6C4FF"/>
<path id="Vector_25" d="M41.6275 77.6793C43.9404 75.2734 46.2772 73.5611 48.7621 72.1215C48.8984 72.0473 49.3504 72.0665 49.4245 72.2028C49.6038 72.3702 49.6156 72.7171 49.5534 72.9275C49.4912 73.138 49.2927 73.4226 49.1253 73.602C46.6596 74.5896 45.1454 77.0027 42.6056 77.8539C42.5004 77.8228 42.3951 77.7918 41.6275 77.6793Z" fill="#A6C4FF"/>
<path id="Vector_26" d="M55.8026 40.5609C56.4558 38.351 58.5793 38.521 60.2271 37.9783C60.7413 37.787 61.0377 38.3323 60.7769 38.8273C59.9014 40.6282 57.8758 41.2882 55.8026 40.5609Z" fill="#A6C4FF"/>
<path id="Vector_27" d="M43.164 38.4256C43.4486 38.6242 43.9436 38.8849 43.8933 39.4422C43.8741 39.8942 43.4221 39.8751 43.1065 39.7818C42.5804 39.6263 42.0854 39.3655 42.4083 38.6599C42.4706 38.4494 42.6691 38.1649 43.164 38.4256Z" fill="#A6C4FF"/>
<path id="Vector_28" d="M16.6424 52.671C16.2215 52.5466 15.8939 52.1065 15.8079 51.6234C15.7219 51.1402 16.0687 51.1283 16.4896 51.2527C17.0156 51.4082 17.4054 51.6379 17.324 52.3004C17.2618 52.5108 16.9891 52.6591 16.6424 52.671Z" fill="#A6C4FF"/>
<path id="Vector_29" d="M16.4355 71.9485C16.9305 72.2092 17.9708 72.1734 17.3441 73.1325C17.1455 73.4171 16.7677 73.5342 16.4832 73.3357C16.0193 72.9697 16.3852 72.5058 16.4355 71.9485Z" fill="#A6C4FF"/>
<path id="Vector_30" d="M13.9707 72.9358C14.15 73.1032 14.3605 73.1654 14.5398 73.3328C14.0997 73.6604 14.1189 73.2085 13.9707 72.9358Z" fill="#A6C4FF"/>
<path id="Vector_31" d="M59.7965 11.1878C59.3921 12.5558 59.8798 13.6154 61.2476 14.0198C61.6685 14.1442 62.319 13.8787 61.965 14.6895C61.6731 15.2898 61.0967 15.6916 60.7691 15.2515C59.576 13.869 58.2632 14.053 56.7828 14.4164C55.544 14.7368 55.4342 13.5601 54.7599 13.1319C55.2073 12.0054 56.1615 11.4865 57.2448 11.6923C58.2228 11.867 58.9667 11.2858 59.7965 11.1878Z" fill="#A6C4FF"/>
<path id="Vector_32" d="M54.7902 13.0258C54.6036 13.6572 54.4479 14.1833 54.1561 14.7837C54.0316 15.2046 53.6538 15.3217 53.3382 15.2284C52.8862 15.2093 52.5275 14.8744 52.4415 14.3912C52.3244 14.0133 52.5229 13.7288 52.8267 13.4753C53.4031 13.0735 54.0537 12.8081 54.7902 13.0258Z" fill="#A6C4FF"/>
<path id="Vector_33" d="M58.2611 32.2474C58.0626 32.532 57.7158 32.5439 57.4312 32.3453C57.326 32.3142 57.3141 31.9675 57.4194 31.9986C57.6179 31.714 57.9957 31.5967 58.2492 31.9005C58.2492 31.9005 58.187 32.111 58.2611 32.2474Z" fill="#A6C4FF"/>
<path id="Vector_34" d="M27.7396 25.9712C27.5721 26.1505 27.4669 26.1195 27.3927 25.9831C27.3186 25.8468 27.3498 25.7416 27.3068 25.5C27.412 25.5311 27.6536 25.4881 27.7588 25.5192C27.7277 25.6244 27.7707 25.8659 27.7396 25.9712Z" fill="#A6C4FF"/>
<path id="Vector_35" d="M22.4897 47.9915C22.4275 48.202 22.3342 48.5177 22.0186 48.4244C21.9134 48.3933 21.9325 47.9412 21.9947 47.7307C22.0258 47.6255 22.2244 47.3409 22.3297 47.372C22.6453 47.4653 22.5519 47.781 22.4897 47.9915Z" fill="#A6C4FF"/>
</g>
</svg>
