<svg width="94" height="89" viewBox="0 0 94 89" fill="none" xmlns="http://www.w3.org/2000/svg">
<g id="Group">
<path id="Vector" d="M21.488 47.768C18.9274 46.5548 16.5015 47.094 14.2104 46.2853C7.74132 44.1286 2.62007 40.3544 0.463721 33.4799C-0.210137 31.3233 -0.210235 29.0317 0.867937 26.8751C1.81134 24.988 2.08095 22.9661 3.29389 21.079C6.93272 15.9569 13.8061 12.9914 20.1403 14.2046C23.5096 14.8785 26.6093 15.6873 29.17 17.844C30.3829 18.7876 31.1915 18.5179 31.1915 16.9004C31.1915 13.5306 32.2697 10.6999 33.887 7.86929C35.7738 4.63426 38.3345 2.20798 41.569 0.860047C44.534 -0.353089 47.7686 -0.218296 50.8683 0.860047C53.429 1.8036 55.3156 3.55592 56.7981 5.8474C57.8763 7.46492 59.6284 8.81284 60.5718 10.5652C62.4586 13.8002 63.402 17.3048 63.1325 21.079C63.1325 21.6182 62.9977 22.1573 63.402 22.8313C65.5583 22.8313 67.7146 21.6182 69.6014 20.9442C75.1271 18.7875 80.1136 20.405 85.1002 22.4269C86.7174 23.1009 88.3347 24.1792 89.5477 25.5271C94.5342 30.6493 94.5343 35.5018 91.2998 41.2979C88.4696 46.5548 83.6178 48.5767 78.4965 50.3291C76.3401 51.003 74.3184 51.9466 72.2969 52.6206C72.0273 54.1033 73.2404 54.3729 73.9142 54.912C78.3617 58.5515 81.3266 63.1344 83.483 68.3913C85.1002 72.1655 84.6959 75.9397 82.9438 79.5791C81.8657 81.601 79.9788 82.9489 78.3616 84.0273C74.588 86.7231 70.5448 88.8798 65.5583 88.4754C63.4019 88.2058 61.5152 87.6667 59.8979 86.4535C54.9114 82.9489 50.7334 78.7704 48.5771 72.5699C47.6337 73.5134 46.825 74.3222 46.0164 75.2657C41.2994 80.5227 35.0999 82.4098 28.3614 83.3533C26.7441 83.6229 24.9922 83.4881 23.2401 83.4881C20.4099 83.4881 18.1187 82.5446 16.2319 80.6575C14.0756 78.6356 12.8627 75.9397 12.5932 72.9743C11.7845 65.4258 13.267 58.4166 17.984 52.0813C19.4665 50.5986 20.5446 49.3855 21.488 47.768ZM18.9274 67.7174C18.523 70.9524 19.4664 73.9178 21.7575 76.4789C22.5662 77.4225 23.3749 77.9616 24.7226 78.0964C28.7657 78.6355 32.6741 77.8268 36.4477 76.6137C39.0083 75.6701 41.4342 73.9178 42.6471 71.3567C43.9948 68.7957 45.6122 66.2346 45.6122 62.9996C45.6122 61.1125 47.9032 59.495 49.9248 59.495C51.9464 59.495 52.216 61.2472 52.4855 62.5952C53.1594 65.8302 54.3722 68.7957 55.4504 71.7612C56.9329 75.8049 60.1674 78.5008 63.5367 81.0618C67.1755 84.0273 73.9142 83.2185 76.7444 79.4443C79.305 76.0745 79.0355 72.4351 77.4182 68.7957C76.3401 66.3694 74.8576 64.2128 73.2404 62.3257C70.8145 59.495 68.2537 56.7991 64.8844 55.0468C63.1324 54.1033 62.8629 51.677 64.6149 50.5987C65.8279 49.7899 67.1756 49.1159 68.6581 48.7115C72.1621 47.9028 75.6662 46.9593 78.9007 45.2069C82.6743 43.1851 85.774 40.4892 87.1217 36.1758C87.7956 34.0191 87.6609 31.9972 86.1784 30.3797C84.2916 28.3578 82.4048 26.2011 79.5746 25.3924C77.0139 24.5836 74.3186 23.3704 71.7579 24.8532C68.7929 26.6055 65.6931 28.4926 63.1325 30.9188C61.3805 32.5364 59.898 32.806 57.7416 32.6712C55.9896 32.5364 55.5853 31.7276 55.5853 30.1101C55.5853 27.8186 56.1243 25.662 56.5287 23.3705C57.0677 20.405 57.2025 17.3048 55.8548 14.4742C54.1028 10.8348 51.5421 8.0041 48.3076 5.44304C46.9599 4.49949 45.6122 4.22992 44.3992 5.03868C41.569 6.79098 39.1432 8.81281 38.065 12.0478C36.9868 15.2829 36.5825 18.518 36.7173 21.8878C36.7173 22.9661 36.852 23.9096 37.6606 24.8532C38.7388 25.9315 39.0084 27.2795 38.1998 28.6274C37.6607 29.571 37.9301 30.7841 37.7954 31.8624C37.7954 32.5364 38.065 33.4799 36.9868 33.6147C36.1782 33.7495 35.5043 33.4799 34.9652 32.9407C34.4261 32.4016 34.1565 31.7276 33.887 30.9188C33.6174 30.2449 33.348 29.4361 32.8089 28.897C28.7657 24.1792 23.6444 20.9442 18.1188 18.3831C17.7144 18.2483 17.3101 18.2484 16.9058 18.2484C10.8411 18.9223 6.25883 23.9096 6.12406 29.5709C5.98929 32.5364 6.66315 34.8279 9.49335 36.715C11.9192 38.4673 14.2105 40.7587 17.1754 41.2979C21.3533 42.1067 25.6659 42.6458 29.8438 41.7023C30.922 41.4327 32.1349 41.1632 32.5393 42.5111C32.9436 43.7242 32.9436 45.0722 31.5959 45.8809C30.6525 46.4201 29.8439 47.094 28.9005 47.6332C26.7441 49.1159 24.7225 50.4638 23.6444 53.0249C23.1053 54.2381 22.4314 55.3164 21.7575 56.3947C20.4098 60.1689 18.523 63.5388 18.9274 67.7174Z" fill="#FFC192"/>
<path id="Vector_2" d="M18.9282 67.7176C18.3891 63.539 20.276 60.1692 22.1628 56.9342C22.8366 55.8558 23.5105 54.7775 24.0496 53.5643C25.1278 51.0033 27.1494 49.6553 29.3057 48.1726C30.2491 47.6334 31.0578 46.9594 32.0012 46.4202C33.3489 45.6115 33.3488 44.2635 32.9445 43.0504C32.4054 41.7025 31.3272 41.9721 30.2491 42.2417C25.9364 43.0504 21.6236 42.6461 17.5805 41.8373C14.7503 41.2982 12.4592 39.0066 9.89859 37.2543C7.20315 35.3672 6.5293 33.0758 6.5293 30.1103C6.66407 24.449 11.2463 19.4617 17.311 18.7877C17.7153 18.7877 18.2545 18.653 18.524 18.9225C24.0496 21.4836 29.1708 24.7186 33.214 29.4364C33.7531 29.9755 34.0227 30.7843 34.2922 31.4583C34.5617 32.1322 34.8314 32.8062 35.3704 33.4802C35.9095 34.1541 36.5834 34.4237 37.392 34.1541C38.4702 33.8845 38.2006 33.0758 38.2006 32.4018C38.2006 31.3235 37.931 30.2451 38.6048 29.1668C39.4135 27.684 39.144 26.4709 38.0659 25.3926C37.1225 24.5838 37.1224 23.5055 37.1224 22.4271C36.9876 19.0573 37.5267 15.8223 38.4701 12.5873C39.5483 9.35222 42.109 7.33031 44.8045 5.57801C46.0174 4.76925 47.365 5.03882 48.7127 5.98237C51.8124 8.40864 54.508 11.3741 56.26 15.0135C57.6077 17.8442 57.6077 20.8097 56.9339 23.9099C56.5296 26.0666 55.9904 28.3581 55.9904 30.6495C55.9904 32.1323 56.3947 33.0758 58.1467 33.2106C60.303 33.3453 61.7855 33.0758 63.5376 31.4583C66.0982 29.032 69.0632 27.1449 72.163 25.3926C74.7236 23.9099 77.4191 24.9882 79.9798 25.9318C82.6752 26.8753 84.6968 28.8972 86.5836 30.9191C88.0661 32.5366 88.2008 34.5585 87.527 36.7152C86.0445 40.8938 83.0795 43.7244 79.3059 45.7463C76.0714 47.4986 72.5674 48.4422 69.0633 49.2509C67.5808 49.6553 66.2331 50.3292 65.0202 51.138C63.4029 52.2163 63.5376 54.7775 65.2897 55.5862C68.6589 57.3385 71.2195 60.0343 73.6454 62.865C75.2627 64.7521 76.7453 67.0436 77.8235 69.335C79.4407 72.9744 79.7103 76.4791 77.1496 79.9837C74.3194 83.7579 67.7155 84.5667 63.9419 81.6012C60.7074 79.0402 57.3381 76.3443 55.8557 72.3005C54.7775 69.335 53.5646 66.3696 52.8907 63.1346C52.6212 61.6519 52.4864 60.0344 50.3301 60.0344C48.3085 60.0344 46.0173 61.6519 46.0173 63.539C46.0173 66.774 44.4001 69.3351 43.0524 71.8961C41.8394 74.3224 39.2788 76.2095 36.8529 77.1531C33.0793 78.501 29.1708 79.1749 25.1277 78.6358C23.78 78.501 22.9714 77.9618 22.1628 77.0182C19.6021 73.918 18.5239 70.9526 18.9282 67.7176Z" fill="#FFE0C9"/>
</g>
</svg>
