<svg width="103" height="101" viewBox="0 0 103 101" fill="none" xmlns="http://www.w3.org/2000/svg">
<g id="Group">
<path id="Vector" d="M90.4887 57.5622C90.5129 58.4315 89.9647 58.9586 89.2106 59.4402C84.4072 59.6767 82.2145 61.785 81.124 66.7284C80.8968 67.7582 80.0762 69.5211 79.1828 68.676C77.0295 66.6891 77.6048 68.976 77.0566 69.5031C75.8239 71.1752 76.466 72.1807 78.4799 72.841C76.8112 73.5528 76.6778 76.1154 74.4821 76.279C73.086 75.7551 72.1259 76.1913 72.0138 77.6786C71.0295 77.2455 71.3232 74.9343 69.609 75.8522C68.443 76.243 67.0256 76.7943 66.8681 78.4875C66.5742 80.7987 64.0517 76.5703 63.8275 79.5448C63.7608 80.826 62.3888 81.1713 61.5651 80.9896C58.2246 80.4687 55.9864 82.7831 53.3121 84.1371C51.3465 85.2155 48.9692 86.203 48.5845 88.9261C47.9666 88.7898 47.3033 88.8596 46.6855 88.7233C45.1984 88.6113 43.666 88.7051 42.179 88.5931C37.9693 88.0965 37.2362 87.5028 35.6736 82.8382C35.5585 82.3808 35.1921 82.0841 34.6197 81.7418C33.4295 81.2633 31.5307 81.0604 31.2551 80.3517C30.0619 77.9285 33.0603 79.0218 33.7448 77.8768C34.1779 76.8924 32.5242 72.6397 31.4945 72.4125C31.4945 72.4125 31.2432 72.5731 31.1977 72.7791C29.7833 75.2751 27.4242 73.2426 25.7554 73.9545C24.9771 73.5668 24.9529 72.6975 25.0892 72.0796C26.0705 70.5681 27.9936 71.6403 29.0446 70.7922C28.327 65.2339 27.2731 64.1375 21.3674 61.5388C20.6558 59.8698 20.4013 58.0857 19.7351 56.2108C14.9594 44.5735 12.2189 32.5211 13.7094 19.8901C14.5454 13.1626 17.3955 7.0954 23.8405 3.33314C26.5602 1.7731 28.8255 2.27276 31.4574 3.0693C35.2794 4.34438 38.5987 5.94065 41.3485 9.13919C45.4733 13.937 47.9292 19.4466 50.5912 25.0017C52.2204 28.3851 52.2206 28.3852 55.7641 27.0068C61.4337 24.8015 66.9427 22.3448 73.118 21.763C78.4241 21.2054 83.1153 22.4563 87.7853 24.7824C90.8986 26.3332 91.9343 30.4495 94.4086 32.9393C98.3032 36.8223 98.3333 41.5809 96.0072 46.2517C94.5019 49.1596 93.4085 52.1584 91.9486 54.8604C90.1648 55.1149 89.5711 55.8478 90.4887 57.5622ZM42.2431 70.6795C39.6113 69.883 37.4155 70.0467 35.4287 72.2004C35.7043 72.9092 36.1404 73.8694 36.0041 74.4873C35.8707 77.0498 37.0611 77.5284 39.3477 76.9528C41.8402 76.4226 42.5701 75.0716 41.2861 73.0604C39.9111 71.4612 41.6495 71.4126 42.2431 70.6795C42.449 70.725 42.861 70.8158 43.0669 70.8613C44.0966 71.0884 44.9659 71.0641 45.2385 69.8283C45.3748 69.2104 45.2597 68.753 44.6418 68.6167C43.4516 68.1381 42.8579 68.8713 42.4248 69.8557C42.3794 70.0617 42.2885 70.4736 42.2431 70.6795ZM70.2071 33.0007C73.2962 33.6821 75.5617 34.1818 77.8271 34.6815C78.4449 34.8178 79.4048 34.3816 79.4957 33.9696C79.9288 32.9852 78.9901 32.3461 78.3723 32.2098C75.8313 31.0013 73.269 30.8681 70.2071 33.0007Z" fill="#FFC192"/>
<path id="Vector_2" d="M48.6297 88.7203C49.0144 85.9973 51.4372 84.8037 53.3573 83.9313C56.0316 82.5772 58.2244 80.469 61.6103 80.7839C62.4341 80.9656 63.8061 80.6202 63.8728 79.3389C63.891 76.319 66.6649 80.3868 66.9133 78.2817C67.0709 76.5884 68.4428 76.2431 69.6543 75.6463C71.323 74.9344 71.0747 77.0397 72.059 77.4728C71.6955 79.1206 70.2327 79.8779 69.1817 80.7261C62.6914 84.6943 56.4071 88.708 48.6297 88.7203Z" fill="#FFC192"/>
<path id="Vector_3" d="M25.8468 73.5424C27.5156 72.8305 29.8747 74.8629 31.2892 72.367C31.3346 72.161 31.5859 72.0004 31.5859 72.0004C32.6156 72.2276 34.4752 76.5257 33.8362 77.4647C33.1517 78.6097 30.1534 77.5164 31.3466 79.9395C31.7826 80.8997 33.7269 80.8966 34.7112 81.3297C35.1231 81.4205 35.444 81.9234 35.765 82.4262C37.3276 87.0908 38.0607 87.6845 42.2704 88.1811C43.7575 88.2931 45.2899 88.1991 46.7769 88.3111C41.5434 91.4766 35.5257 90.3652 32.2247 85.7491C29.3598 82.0932 26.9976 78.1162 25.8468 73.5424Z" fill="#FFC192"/>
<path id="Vector_4" d="M78.5253 72.6352C76.6719 72.2264 76.0753 71.0147 77.102 69.2973C77.4443 68.7248 77.1203 66.2774 79.2281 68.4703C80.1215 69.3154 80.9422 67.5525 81.1694 66.5226C82.2144 61.7852 84.4072 59.6769 89.2559 59.2345C86.5876 64.4778 83.3469 69.3789 78.5253 72.6352Z" fill="#FFC192"/>
<path id="Vector_5" d="M21.252 61.0815C27.3635 63.7257 28.1661 64.9827 28.9291 70.3349C27.6722 71.1376 25.955 70.1109 24.9737 71.6224C23.5958 68.0785 21.7152 64.8557 21.252 61.0815Z" fill="#FFC192"/>
<path id="Vector_6" d="M90.4881 57.562C89.5251 56.0536 90.1642 55.1147 91.7421 54.8148C91.9268 55.9355 91.4936 56.9199 90.4881 57.562Z" fill="#FFC192"/>
<path id="Vector_7" d="M72.0589 77.4727C72.2164 75.7794 73.131 75.5491 74.5272 76.0731C73.8881 77.0121 73.0886 77.6998 72.0589 77.4727Z" fill="#FFC192"/>
<path id="Vector_8" d="M42.2438 70.6798C41.6502 71.4128 40.1179 71.5068 41.2414 73.2666C42.5709 75.0718 41.841 76.4228 39.303 77.1589C36.8105 77.6891 35.8261 77.256 35.9594 74.6934C35.9352 73.8241 35.4537 73.0699 35.3841 72.4065C37.3709 70.2528 39.612 69.8832 42.2438 70.6798Z" fill="#FFC192"/>
<path id="Vector_9" d="M70.2072 33.0009C73.2692 30.8683 75.8315 31.0016 78.4179 32.0041C79.1962 32.3918 79.929 32.9854 79.5413 33.7639C79.2445 34.1304 78.2845 34.5667 77.8726 34.4758C75.5618 34.1821 73.2963 33.6823 70.2072 33.0009Z" fill="#FFC192"/>
<path id="Vector_10" d="M42.2427 70.6793C42.2881 70.4733 42.3789 70.0614 42.6303 69.9009C43.0634 68.9164 43.6571 68.1833 44.8473 68.6618C45.2592 68.7527 45.5803 69.2555 45.444 69.8734C45.1714 71.1093 44.3021 71.1335 43.2724 70.9064C42.8605 70.8156 42.4486 70.7247 42.2427 70.6793Z" fill="#FFC192"/>
</g>
</svg>
