<svg width="62" height="67" viewBox="0 0 62 67" fill="none" xmlns="http://www.w3.org/2000/svg">
<g id="Group">
<path id="Vector" d="M54.3125 24.7185C54.7944 24.3972 55.2763 24.2365 55.7582 23.9152C56.7219 23.2726 56.4006 22.9513 55.5975 22.63C54.6337 21.3448 55.2763 19.7383 54.955 18.2925C57.0431 18.4531 58.1675 20.0597 59.7738 20.8629C60.7375 21.3449 60.7375 22.1481 59.4525 23.4333C57.6856 25.0398 56.4006 25.843 54.3125 24.7185ZM57.8463 23.112L57.6857 22.9514L57.525 23.112L57.6857 23.2727L57.8463 23.112Z" fill="#D5E3FF"/>
<path id="Vector_2" d="M55.1155 46.4063C55.5974 45.6031 56.2399 44.7999 57.043 44.3179C58.0067 43.836 58.1673 43.0327 58.0067 42.2295C58.4886 42.3901 58.9705 42.5508 59.4523 42.7114C60.2555 43.0327 61.5405 43.1934 61.3799 44.1573C61.3799 45.4425 60.4161 46.7276 59.2918 46.8883C58.0068 47.3702 56.2398 47.8522 55.1155 46.4063Z" fill="#D5E3FF"/>
<g id="Group_2">
<path id="Vector_3" d="M55.1147 46.406C52.5447 47.0486 49.9748 46.5666 47.7261 45.2814C45.9592 44.3175 44.1923 44.1569 42.1042 43.3537C42.2648 45.6028 42.7467 47.3699 43.871 48.8157C45.4773 50.7435 45.7986 53.3139 46.9229 55.4024C47.5654 56.6876 47.4048 58.1334 46.4411 59.4186C44.5136 61.989 42.2648 61.507 41.1404 58.9366C40.6585 57.8121 40.1767 56.8482 39.5342 55.8843C37.4461 52.6713 35.358 49.4583 32.9486 46.7273C31.6636 46.8879 31.8243 47.6911 31.6636 48.4944C30.6999 52.1893 29.2542 55.8843 28.6117 59.5792C27.9692 63.2742 25.0781 64.5594 22.8293 66.6479C22.1868 67.1298 21.5443 67.1298 21.2231 66.4872C20.0987 64.3987 18.3318 62.6316 18.9743 59.9006C20.0987 55.4024 21.0624 50.7436 23.4718 46.5667C26.2024 44.7995 25.7206 41.7471 26.3631 39.1767C24.9174 38.8554 23.4718 38.5342 22.8293 39.3374C19.9381 42.5504 14.9587 41.5865 12.2281 44.6389C12.0674 44.7995 11.425 44.9601 11.1038 44.7995C8.53379 43.3536 8.2125 45.6027 7.24875 46.8879C7.73063 47.5305 8.69435 47.0486 9.33685 47.5305C9.81872 47.8518 10.14 48.1731 9.97938 48.8157C9.81876 49.4583 9.33687 49.4583 8.855 49.4583C6.60626 49.9403 4.83943 48.8157 3.07257 47.8518C2.75132 47.0486 2.91186 46.2453 3.39374 45.6027C4.83935 43.193 4.51813 42.7111 1.30564 42.5504C1.14502 42.3898 1.145 42.229 0.984375 42.0684C0.984375 41.4258 0.984434 40.9439 1.14506 40.3013C1.94818 39.3374 3.07253 39.3374 4.03627 39.498C9.65812 40.6226 12.71 36.4457 16.7256 33.7147C13.5131 31.4656 9.97933 30.5017 6.60622 29.5378C5.96372 29.3771 5.3213 29.3771 4.67881 29.2164C1.9482 28.4132 1.62689 27.9312 2.10876 26.0034C2.59064 23.5937 4.19694 22.1479 6.28505 22.6298C9.33691 23.2724 12.2281 24.2363 14.7981 25.8428C16.7256 26.9674 18.6531 27.7706 20.7412 28.2526C21.2231 28.4132 21.8655 28.2526 22.1868 27.9313C22.508 27.4493 22.5081 26.9674 22.0262 26.4855C19.135 23.1118 17.6893 18.9349 15.7618 15.0793C15.1193 13.7941 14.9588 12.3483 14.3163 11.0631C13.6738 9.77786 14.3163 8.81402 15.1194 8.01077C17.85 5.27973 19.6168 5.44034 21.3837 8.97463C24.1143 13.9548 26.6843 19.0956 29.5755 24.2363C31.1818 23.4331 31.3424 21.9872 31.8242 20.702C33.5911 15.4006 35.5186 10.0992 37.1248 4.79778C37.9279 1.90609 40.0161 0.781502 42.5861 0.138903C44.1923 -0.343045 44.9954 0.460222 44.9954 2.06672C44.9954 3.67321 44.5135 5.11904 43.871 6.56489C41.9435 10.4205 41.1404 14.758 39.5342 18.7742C39.0523 18.9349 38.4098 19.2562 38.5705 19.7382C39.0523 21.0234 39.0523 22.4692 40.1767 23.4331C40.9798 23.2724 40.8192 21.8266 41.6224 21.9872C43.8711 22.1479 45.6379 20.8627 47.4048 19.8988C48.0473 19.5775 48.5292 19.0956 49.3323 19.7382C49.9748 20.2201 50.296 19.2562 50.6173 18.7742C51.9023 18.6136 53.1873 18.4529 54.4723 18.2923C54.6329 19.7381 53.9904 21.184 55.1147 22.6298C55.1147 23.1118 55.2754 23.4331 55.2754 23.915C54.7935 24.2363 54.3116 24.397 53.8298 24.7183C53.5085 24.8789 53.1873 24.8789 52.866 25.0396C52.2235 24.8789 51.581 24.879 51.0991 24.5577C50.296 23.9151 49.8141 23.2725 49.011 24.5577C48.5292 25.5216 48.3686 26.1641 49.6536 26.6461C51.4204 27.2887 49.8141 28.2525 49.9747 29.2164C49.4929 29.5377 49.011 29.6984 48.5292 30.0197C47.2442 27.2886 44.6742 28.5739 42.1042 27.2887C43.2286 29.5378 42.7467 31.3049 43.871 32.7507C43.2285 32.7507 42.4254 32.9115 41.7829 32.9115C40.6586 32.9115 39.5342 32.7508 38.4099 32.9115C37.7674 32.9115 37.2854 33.3933 37.1248 34.0359C37.1248 34.6785 37.1248 35.4818 37.7673 35.6424C39.6948 35.9637 40.6586 37.5702 42.2648 38.3735C42.9073 38.6948 43.0679 38.0522 43.0679 37.5702C44.5135 37.0883 45.7986 37.5703 46.9229 38.5342C47.0836 39.3374 47.4047 39.98 48.3685 39.3374C51.9022 39.0161 54.6329 41.4258 57.6848 42.3897C57.6848 43.3536 57.5241 43.9962 56.721 44.4781C56.2391 44.7994 55.436 45.6027 55.1147 46.406Z" fill="#A6C4FF"/>
<path id="Vector_4" d="M2.91136 48.0127C4.67823 48.9766 6.44515 49.9405 8.69389 49.6192C9.17576 49.4585 9.81818 49.6193 9.81818 48.9767C9.9788 48.3341 9.49699 48.0127 9.17574 47.6914C8.53324 47.2094 7.56952 47.6914 7.08765 47.0488C8.05139 45.7636 8.37258 43.3539 10.9426 44.9604C11.2638 45.1211 11.9063 45.121 12.067 44.7997C14.9582 41.5867 19.7769 42.5506 22.6681 39.4983C23.4712 38.695 24.7562 38.8557 26.2019 39.3377C25.5594 42.0687 26.0413 44.9604 23.3106 46.7275C22.3469 45.603 21.5438 45.9243 20.4194 46.5669C18.4919 47.5308 17.2069 50.1012 14.4763 49.1373C14.1551 48.9766 13.3519 49.7799 13.0307 50.2618C11.585 52.3503 9.65761 52.1896 7.5695 51.7076C6.60575 51.3863 5.64203 51.0651 4.67828 51.0651C2.59017 50.9044 2.59011 49.6192 2.91136 48.0127Z" fill="#A6C4FF"/>
<path id="Vector_5" d="M51.0993 18.7743C50.7781 19.4169 50.4568 20.2202 49.8143 19.7382C49.0112 19.0957 48.5293 19.5776 47.8868 19.8989C46.12 20.8628 44.3531 22.3086 42.1044 21.9873C41.3013 21.8266 41.4619 23.2725 40.6587 23.4332C39.5344 22.4693 39.5344 21.0234 39.0525 19.7382C38.8919 19.2563 39.5344 18.9349 40.0163 18.7743C40.1769 19.8988 40.6587 21.0235 41.9437 20.0596C44.3531 18.4531 47.0837 18.2924 49.8143 17.8104C50.6175 17.6498 50.9387 18.1317 51.0993 18.7743Z" fill="#A6C4FF"/>
<path id="Vector_6" d="M44.1926 32.5903C43.2289 31.1445 43.5502 29.3773 42.4258 27.1282C44.9958 28.4134 47.7264 26.9675 48.8507 29.8592C48.0476 32.1083 45.7988 31.6264 44.1926 32.5903Z" fill="#A6C4FF"/>
<path id="Vector_7" d="M43.3884 37.4099C43.3884 37.8918 43.2277 38.5344 42.5852 38.2131C40.979 37.4099 40.0153 35.8033 38.0878 35.482C37.2847 35.3214 37.2846 34.5181 37.4453 33.8755C37.6059 33.0723 38.0877 32.751 38.7302 32.751C39.8546 32.751 40.979 32.751 42.1034 32.751C39.694 35.1607 42.5852 35.964 43.3884 37.4099Z" fill="#A6C4FF"/>
<path id="Vector_8" d="M50.2963 29.0559C50.2963 28.2527 51.7419 27.1282 49.975 26.4856C48.69 26.0036 48.8507 25.3609 49.3326 24.397C49.9751 23.1118 50.6175 23.7544 51.4207 24.397C51.9025 24.7183 52.545 24.7184 53.1875 24.8791C53.0269 26.3249 53.0269 27.6101 53.6694 28.8953C52.5451 29.6986 51.4206 29.6985 50.2963 29.0559Z" fill="#A6C4FF"/>
<path id="Vector_9" d="M1.14453 42.7109C4.35701 43.0322 4.67824 43.3536 3.23263 45.7633C2.4295 44.9601 1.6264 43.8355 1.14453 42.7109Z" fill="#A6C4FF"/>
<path id="Vector_10" d="M48.6895 39.1767C47.7257 39.8193 47.4045 39.1767 47.2439 38.3735C48.047 38.2128 48.5288 38.5341 48.6895 39.1767Z" fill="#A6C4FF"/>
<path id="Vector_11" d="M0.984803 40.4622C0.984803 41.1048 0.984842 41.5868 0.824218 42.2294C-0.139527 41.4261 -0.460814 40.9441 0.984803 40.4622Z" fill="#A6C4FF"/>
</g>
</g>
</svg>
