<svg width="81" height="94" viewBox="0 0 81 94" fill="none" xmlns="http://www.w3.org/2000/svg">
<g id="Group">
<path id="Vector" d="M33.4888 25.6205C33.4888 24.7768 33.2779 23.9331 34.1215 23.5112C36.8631 22.6675 36.8631 22.6675 38.3393 25.1986C39.3938 23.5112 39.1829 21.8237 39.6046 20.1363C40.0264 17.6052 42.979 19.5036 44.0335 17.8162C41.5028 16.1288 41.5027 16.1287 39.1828 16.9724C38.1284 17.3943 37.7067 16.7616 37.2849 16.1288C37.2849 15.496 37.4957 15.0742 37.4957 14.4414C38.3393 14.4414 39.1828 14.4414 39.1828 13.3868C39.1828 12.754 38.3394 12.5431 37.7067 12.3321C37.4958 11.0666 38.1285 10.2228 38.7612 9.37913C42.7681 8.53543 42.768 8.32445 43.4007 4.31685C46.1423 3.26222 48.4621 5.16056 51.2037 5.37148C53.7345 9.16815 53.3127 13.8085 54.1563 18.0271C55.2108 24.1439 55.8434 30.2608 56.4761 36.3777C56.8978 39.7525 56.8979 39.7524 60.4831 40.1743C66.1772 40.8071 71.8713 40.5962 77.3545 41.8618C80.307 42.4946 81.1505 43.971 80.0961 46.924C79.4634 48.4004 78.6198 49.666 77.3545 50.5097C72.504 53.6736 67.6534 57.0484 62.592 60.0014C60.0613 61.4779 59.0067 63.1653 59.2176 66.1183C59.8503 72.4461 59.8504 78.7739 61.1157 85.1017C61.1157 85.5235 61.1157 86.1562 61.1157 86.578C61.1157 88.8982 61.5375 91.4294 59.2176 93.1168C57.5305 94.1715 52.0473 93.5386 50.1493 91.8512C46.775 88.8982 43.1899 86.3672 40.8701 82.1486C37.9176 76.8755 35.5977 76.6646 30.7471 80.4613C28.6382 82.1487 26.3184 83.6251 24.4203 85.3125C19.7807 89.1092 18.5154 89.3202 12.6104 86.789C12.6104 84.6798 13.2431 82.9923 14.5085 81.3049C17.2501 77.2973 17.25 72.446 18.9372 68.0166C19.1481 67.1729 19.1481 66.3291 19.5698 65.4854C22.5223 60.2123 19.9917 57.2594 16.1956 53.6736C12.3995 50.0879 7.54893 47.135 5.44 41.8618C5.01821 41.0181 3.75296 40.3853 2.90939 39.7525C2.48761 36.7996 2.90934 34.4794 6.28362 33.4248C6.9163 33.2138 7.33806 32.581 7.97074 32.1591C9.0252 31.9482 10.0797 31.9482 11.1341 32.581C14.0866 34.6903 17.25 35.323 20.6243 34.6903C23.155 34.6903 25.8966 34.9012 28.4274 35.7449C28.6383 36.1667 28.6383 37.0104 28.8492 37.0104C29.6927 37.0104 29.2709 36.1667 29.4818 35.7449C29.9036 35.534 30.1145 35.1121 30.5363 34.9011C32.8561 34.9011 32.0126 32.37 33.067 31.7372C35.8086 29.8389 34.9651 27.9407 33.4888 25.6205Z" fill="#FACF71"/>
<path id="Vector_2" d="M43.3983 4.31778C42.7656 8.32538 42.5549 8.53636 38.7588 9.38006C39.1806 6.63802 40.0241 3.89603 41.9222 1.78677C42.5549 0.943067 43.3983 -0.11164 44.4528 0.521138C46.9835 1.78669 50.3578 1.78667 51.2014 5.37241C48.4598 5.16149 46.1399 3.26315 43.3983 4.31778C43.1874 3.89593 42.9766 3.68506 42.9766 4.10691L43.3983 4.31778Z" fill="#FACF71"/>
<path id="Vector_3" d="M37.0706 16.125C37.4924 16.7578 37.9142 17.3905 38.9687 16.9686C41.2885 16.1249 41.2885 16.125 43.8192 17.8124C42.9756 19.7107 39.8123 17.6014 39.3905 20.1325C39.1796 21.8199 39.1795 23.7183 38.1251 25.1948C36.6488 22.6637 36.6488 22.6637 33.9072 23.5074C34.7508 20.9763 34.5399 18.0233 37.0706 16.125Z" fill="#FACF71"/>
<path id="Vector_4" d="M7.97022 32.1616C7.54843 32.5835 6.91578 33.2163 6.2831 33.4273C3.11971 34.4819 2.48709 37.013 2.90887 39.755C0.799945 38.7004 0.799919 36.3802 0.378133 34.6928C-0.043652 32.7944 1.43252 31.107 3.33055 30.8961C4.8068 30.6852 6.70486 30.2633 7.97022 32.1616Z" fill="#FACF71"/>
<path id="Vector_5" d="M33.4847 25.625C34.9609 27.7343 36.0153 29.8435 32.8519 31.5309C31.7974 32.1637 32.6411 34.6948 30.3213 34.6948C31.1649 31.7418 31.1649 28.367 33.4847 25.625Z" fill="#FACF71"/>
<path id="Vector_6" d="M20.624 34.4764C17.2497 35.1092 13.8754 34.4764 11.1338 32.3672C14.9299 32.3672 18.3041 33 20.624 34.4764Z" fill="#FACF71"/>
<path id="Vector_7" d="M37.7041 12.5469C38.3368 12.5469 38.9694 12.7578 39.1803 13.6015C39.1803 14.6561 38.1258 14.6561 37.4932 14.6561C37.4932 13.8124 37.4932 13.1797 37.7041 12.5469Z" fill="#FACF71"/>
<path id="Vector_8" d="M29.2742 35.5312C29.0633 35.9531 29.485 36.7968 28.6414 36.7968C28.4305 36.7968 28.4306 35.9531 28.2197 35.5312C28.6415 35.5312 28.8524 35.5312 29.2742 35.5312Z" fill="#FACF71"/>
<path id="Vector_9" d="M43.3992 4.31819C43.1883 4.31819 42.9775 4.10732 42.9775 4.10732C43.1884 3.89639 43.1883 3.89634 43.3992 4.31819Z" fill="#FACF71"/>
</g>
</svg>
