<svg width="82" height="94" viewBox="0 0 82 94" fill="none" xmlns="http://www.w3.org/2000/svg">
<g id="Group">
<path id="Vector" d="M34.0914 25.7611C34.0914 24.9174 33.8805 24.0737 34.724 23.6518C37.4656 22.8081 37.4656 22.8081 38.9419 25.3392C39.9963 23.6518 39.7854 21.9643 40.2072 20.2769C40.629 17.7458 43.5815 19.6442 44.636 17.9568C42.1053 16.2694 42.1052 16.2693 39.7854 17.113C38.7309 17.5349 38.3092 16.9022 37.8874 16.2694C37.8874 15.6366 38.0983 15.2148 38.0983 14.582C38.9418 14.582 39.7854 14.582 39.7854 13.5274C39.7854 12.8946 38.9419 12.6837 38.3092 12.4728C38.0983 11.2072 38.731 10.3635 39.3637 9.51976C43.3707 8.67605 43.3705 8.46507 44.0032 4.45748C46.7448 3.40285 49.0647 5.30118 51.8063 5.51211C54.337 9.30878 53.9153 13.9492 54.7588 18.1677C55.8133 24.2845 56.4459 30.4014 57.0786 36.5183C57.5004 39.8931 57.5004 39.8931 61.0856 40.3149C66.7797 40.9477 72.4738 40.7369 77.957 42.0024C80.9095 42.6352 81.7531 44.1116 80.6986 47.0646C80.0659 48.5411 79.2224 49.8066 77.957 50.6503C73.1065 53.8142 68.256 57.1891 63.1945 60.142C60.6638 61.6185 59.6093 63.306 59.8202 66.2589C60.4529 72.5867 60.4529 78.9145 61.7183 85.2423C61.7183 85.6641 61.7183 86.2968 61.7183 86.7187C61.7183 89.0389 62.14 91.57 59.8202 93.2575C58.133 94.3121 52.6499 93.6792 50.7518 91.9918C47.3775 89.0389 43.7924 86.5078 41.4726 82.2893C38.5201 77.0161 36.2002 76.8052 31.3497 80.6019C29.2407 82.2893 26.9209 83.7658 25.0229 85.4532C20.3832 89.2498 19.1179 89.4608 13.2129 86.9297C13.2129 84.8204 13.8457 83.1329 15.111 81.4455C17.8526 77.4379 17.8526 72.5866 19.5397 68.1572C19.7506 67.3135 19.7506 66.4698 20.1724 65.6261C23.1249 60.3529 20.5942 57.4 16.7981 53.8142C13.0021 50.2285 8.15147 47.2756 6.04254 42.0024C5.62075 41.1587 4.3555 40.5259 3.51193 39.8932C3.09014 36.9402 3.51188 34.62 6.88616 33.5654C7.51884 33.3545 7.9406 32.7216 8.57328 32.2998C9.62774 32.0888 10.6822 32.0889 11.7367 32.7216C14.6892 34.8309 17.8526 35.4637 21.2268 34.8309C23.7576 34.8309 26.4992 35.0418 29.0299 35.8855C29.2408 36.3074 29.2408 37.151 29.4517 37.151C30.2953 37.151 29.8735 36.3074 30.0844 35.8855C30.5061 35.6746 30.717 35.2527 31.1388 35.0418C33.4586 35.0418 32.6151 32.5107 33.6696 31.8779C36.4112 29.9795 35.5676 28.0813 34.0914 25.7611Z" fill="#FAC95D"/>
<path id="Vector_2" d="M44.0009 4.45841C43.3682 8.466 43.1574 8.67698 39.3613 9.52069C39.7831 6.77865 40.6267 4.03666 42.5247 1.9274C43.1574 1.08369 44.0009 0.0289845 45.0553 0.661763C47.586 1.92732 50.9603 1.92729 51.8039 5.51304C49.0623 5.30211 46.7425 3.40378 44.0009 4.45841C43.79 4.03656 43.5792 3.82568 43.5792 4.24753L44.0009 4.45841Z" fill="#FACF71"/>
<path id="Vector_3" d="M37.6732 16.2695C38.0949 16.9023 38.5168 17.535 39.5712 17.1132C41.8911 16.2695 41.891 16.2695 44.4217 17.9569C43.5782 19.8552 40.4148 17.7459 39.9931 20.2771C39.7822 21.9645 39.7821 23.8628 38.7276 25.3393C37.2514 22.8082 37.2514 22.8082 34.5098 23.6519C35.3533 21.1208 35.1424 18.1679 37.6732 16.2695Z" fill="#FACF71"/>
<path id="Vector_4" d="M8.57276 32.3022C8.15097 32.7241 7.51832 33.357 6.88564 33.5679C3.72225 34.6225 3.08963 37.1536 3.51141 39.8957C1.40248 38.841 1.40246 36.5208 0.980673 34.8334C0.558887 32.9351 2.03506 31.2477 3.93309 31.0367C5.40934 30.8258 7.3074 30.4039 8.57276 32.3022Z" fill="#FACF71"/>
<path id="Vector_5" d="M34.095 25.7617C35.5713 27.871 36.6256 29.9802 33.4623 31.6676C32.4078 32.3004 33.2515 34.8315 30.9316 34.8315C31.7752 31.8786 31.7752 28.5038 34.095 25.7617Z" fill="#FACF71"/>
<path id="Vector_6" d="M21.2265 34.621C17.8522 35.2538 14.4779 34.621 11.7363 32.5117C15.5324 32.5117 18.9067 33.1445 21.2265 34.621Z" fill="#FACF71"/>
<path id="Vector_7" d="M38.3145 12.6836C38.9472 12.6836 39.5797 12.8945 39.7906 13.7382C39.7906 14.7929 38.7362 14.7929 38.1035 14.7929C38.1035 13.9492 38.1036 13.3164 38.3145 12.6836Z" fill="#FACF71"/>
<path id="Vector_8" d="M29.8767 35.6758C29.6658 36.0976 30.0875 36.9413 29.2439 36.9413C29.0331 36.9413 29.0332 36.0976 28.8223 35.6758C29.2441 35.6758 29.4549 35.6758 29.8767 35.6758Z" fill="#FACF71"/>
<path id="Vector_9" d="M44.0018 4.45882C43.7909 4.45882 43.5801 4.24794 43.5801 4.24794C43.791 4.03702 43.7909 4.03696 44.0018 4.45882Z" fill="#FAC95D"/>
</g>
</svg>
