<svg width="81" height="94" viewBox="0 0 81 94" fill="none" xmlns="http://www.w3.org/2000/svg">
<g id="Group">
<path id="Vector" d="M33.1832 25.2923C33.1832 24.4486 32.9722 23.6049 33.8158 23.1831C36.5574 22.3394 36.5574 22.3394 38.0337 24.8705C39.0881 23.1831 38.8772 21.4956 39.299 19.8082C39.7208 17.2771 42.6733 19.1755 43.7278 17.4881C41.1971 15.8006 41.197 15.8006 38.8772 16.6443C37.8227 17.0661 37.401 16.4334 36.9792 15.8007C36.9792 15.1679 37.1901 14.7461 37.1901 14.1133C38.0336 14.1133 38.8772 14.1133 38.8772 13.0587C38.8772 12.4259 38.0337 12.2149 37.401 12.004C37.1901 10.7385 37.8228 9.89471 38.4555 9.05101C42.4624 8.2073 42.4623 7.99632 43.095 3.98873C45.8366 2.9341 48.1565 4.83243 50.8981 5.04336C53.4288 8.84003 53.0071 13.4804 53.8506 17.6989C54.9051 23.8158 55.5377 29.9327 56.1704 36.0495C56.5922 39.4243 56.5922 39.4243 60.1774 39.8462C65.8715 40.4789 71.5656 40.2681 77.0488 41.5337C80.0013 42.1665 80.8449 43.6429 79.7904 46.5958C79.1577 48.0723 78.3142 49.3379 77.0488 50.1816C72.1983 53.3455 67.3478 56.7203 62.2863 59.6733C59.7556 61.1498 58.7011 62.8372 58.912 65.7902C59.5447 72.118 59.5447 78.4458 60.8101 84.7735C60.8101 85.1954 60.8101 85.8281 60.8101 86.2499C60.8101 88.5701 61.2318 91.1013 58.912 92.7887C57.2248 93.8433 51.7416 93.2105 49.8436 91.5231C46.4693 88.5701 42.8842 86.039 40.5644 81.8205C37.6119 76.5474 35.292 76.3365 30.4415 80.1331C28.3325 81.8205 26.0127 83.297 24.1147 84.9844C19.475 88.7811 18.2097 88.992 12.3047 86.4609C12.3047 84.3517 12.9375 82.6642 14.2028 80.9768C16.9444 76.9692 16.9444 72.1179 18.6315 67.6884C18.8424 66.8447 18.8424 66.001 19.2642 65.1573C22.2167 59.8842 19.686 56.9312 15.8899 53.3455C12.0939 49.7597 7.24326 46.8068 5.13434 41.5337C4.71255 40.69 3.4473 40.0572 2.60373 39.4244C2.18194 36.4715 2.60368 34.1513 5.97796 33.0966C6.61064 32.8857 7.0324 32.2529 7.66507 31.831C8.71954 31.6201 9.774 31.6201 10.8285 32.2529C13.781 34.3621 16.9444 34.9949 20.3186 34.3621C22.8493 34.3621 25.591 34.5731 28.1217 35.4168C28.3326 35.8386 28.3326 36.6823 28.5435 36.6823C29.3871 36.6823 28.9653 35.8386 29.1762 35.4168C29.5979 35.2058 29.8088 34.7839 30.2306 34.573C32.5504 34.573 31.7069 32.0419 32.7614 31.4091C35.503 29.5108 34.6594 27.6125 33.1832 25.2923Z" fill="#A6C4FF"/>
<path id="Vector_2" d="M43.0944 3.98966C42.4617 7.99725 42.2509 8.20823 38.4548 9.05194C38.8766 6.3099 39.7202 3.56791 41.6182 1.45865C42.2509 0.614942 43.0944 -0.439765 44.1488 0.193013C46.6795 1.45857 50.0539 1.45854 50.8974 5.04429C48.1558 4.83336 45.836 2.93503 43.0944 3.98966C42.8835 3.56781 42.6727 3.35693 42.6727 3.77878L43.0944 3.98966Z" fill="#A6C4FF"/>
<path id="Vector_3" d="M36.7669 15.8008C37.1887 16.4336 37.6105 17.0663 38.665 16.6444C40.9848 15.8007 40.9848 15.8008 43.5155 17.4882C42.6719 19.3865 39.5086 17.2772 39.0868 19.8083C38.8759 21.4957 38.8758 23.3941 37.8214 24.8706C36.3451 22.3395 36.3451 22.3395 33.6035 23.1832C34.4471 20.6521 34.2362 17.6991 36.7669 15.8008Z" fill="#A6C4FF"/>
<path id="Vector_4" d="M7.66456 31.8315C7.24277 32.2534 6.61012 32.8863 5.97744 33.0972C2.81405 34.1518 2.18142 36.6829 2.60321 39.425C0.494281 38.3703 0.494255 36.0501 0.0724694 34.3627C-0.349316 32.4643 1.12686 30.777 3.02489 30.566C4.50114 30.3551 6.3992 29.9332 7.66456 31.8315Z" fill="#A6C4FF"/>
<path id="Vector_5" d="M33.1829 25.293C34.6592 27.4022 35.7135 29.5115 32.5501 31.1989C31.4957 31.8317 32.3394 34.3628 30.0195 34.3628C30.8631 31.4098 30.8631 28.035 33.1829 25.293Z" fill="#A6C4FF"/>
<path id="Vector_6" d="M20.3181 34.1522C16.9438 34.785 13.5695 34.1522 10.8279 32.043C14.6239 32.043 17.9982 32.6757 20.3181 34.1522Z" fill="#A6C4FF"/>
<path id="Vector_7" d="M37.4004 12.2148C38.0331 12.2148 38.6657 12.4258 38.8766 13.2695C38.8766 14.3241 37.8221 14.3241 37.1895 14.3241C37.1895 13.4804 37.1895 12.8476 37.4004 12.2148Z" fill="#A6C4FF"/>
<path id="Vector_8" d="M28.9649 35.207C28.754 35.6289 29.1757 36.4725 28.3321 36.4725C28.1212 36.4725 28.1213 35.6289 27.9104 35.207C28.3322 35.207 28.5431 35.207 28.9649 35.207Z" fill="#A6C4FF"/>
<path id="Vector_9" d="M43.0936 3.99007C42.8827 3.99007 42.6719 3.77919 42.6719 3.77919C42.8828 3.56827 42.8827 3.56821 43.0936 3.99007Z" fill="#A6C4FF"/>
</g>
</svg>
