<svg width="24" height="25" viewBox="0 0 24 25" fill="none" xmlns="http://www.w3.org/2000/svg">
<g id="Icon/Arrow Up">
<path id="Vector 719" d="M16.7061 18.2576C15.1078 16.4995 13.1806 15.0689 11.5229 13.3624C9.79432 11.583 8.11564 9.76498 6.36145 8.01079C6.3366 7.98594 6.17417 7.82351 6.20389 7.85323C6.47321 8.12255 6.70513 8.44695 6.95909 8.72795C8.69137 10.6447 10.5735 12.3383 12.5932 13.9437C13.6069 14.7494 14.5637 15.5749 15.5216 16.4429C15.5993 16.5133 16.3827 17.3814 16.1193 16.9863" stroke="#262626" stroke-width="2" stroke-linecap="round"/>
<path id="Vector 720" d="M17 7.5C15.9782 9.43009 13.3338 9.94079 11.4039 10.3361C10.9199 10.4352 10.3781 10.5204 9.88265 10.5317C9.78535 10.5339 9.36073 10.6266 9.62186 10.5317C11.0729 10.004 12.536 9.51837 13.9629 8.91804C14.6352 8.63518 15.2986 8.33007 15.9677 8.04331C16.0352 8.01439 15.7083 8.33593 15.6309 8.38016C14.4375 9.06207 13.3213 9.26617 11.969 9.50481C10.6492 9.73772 9.48055 9.51386 8.17666 9.45591C7.89725 9.4435 7.4453 9.31886 7.31823 9.06473" stroke="#262626" stroke-width="2" stroke-linecap="round"/>
<path id="Vector 721" d="M6.43771 8.67383C6.68373 9.41189 7.2846 10.0229 7.51346 10.7927C7.88721 12.0499 8.13562 13.3284 7.95354 14.6394C7.85547 15.3455 7.64899 15.7616 7.3722 16.3943C7.22837 16.723 7.20761 16.8484 7.22007 16.3997C7.23872 15.7283 7.73694 15.1771 7.90464 14.5416C8.14023 13.6488 8.31375 12.721 8.1437 11.7979C8.00514 11.0457 7.72714 10.0719 7.17118 9.51596C7.09977 9.44455 6.40433 8.72523 6.55724 9.06501C7.20675 10.5084 7.44332 12.3367 7.26897 13.9059C7.14211 15.0477 7.1898 17.081 6.22038 17.9427C6.16776 17.9895 6.39605 17.2612 6.43771 17.1603C6.81645 16.2434 7.12444 15.364 7.36133 14.3949C7.71415 12.9515 7.63362 11.3441 6.7311 10.1408" stroke="#262626" stroke-width="2" stroke-linecap="round"/>
</g>
</svg>
