<svg width="24" height="32" viewBox="0 0 24 32" fill="none" xmlns="http://www.w3.org/2000/svg">
<path id="Vector" d="M13.9583 5.47219C13.5775 7.50354 14.6564 9.97924 14.9103 12.5184C14.9738 13.0263 15.2912 13.2802 15.7989 13.4072C17.8299 13.9785 19.861 14.6133 21.892 15.1211C22.5267 15.3116 22.971 15.6289 23.4787 16.0098C24.3038 16.5811 24.1134 17.5333 23.1614 17.8507C22.0189 18.2316 20.813 18.549 19.6706 18.8029C19.0359 18.9299 18.4011 19.0569 17.8299 19.4377C17.576 19.6282 17.2587 19.6917 16.9414 19.6917C15.2912 19.9456 15.2277 19.9456 14.9738 21.5326C14.593 23.9448 14.2756 26.4205 14.0217 28.8962C13.9583 29.7215 13.514 30.3563 13.1967 30.9911C12.7524 31.8163 10.6579 31.372 10.404 30.4832C9.64235 27.4362 8.05562 24.7066 7.48439 21.5961C7.35745 21.0247 7.0401 20.8343 6.53235 20.5804C5.38989 20.0091 4.1205 19.8186 3.04151 19.1838C2.40681 18.8029 1.83559 18.4856 1.13742 18.2951C0.121904 18.0412 -0.132022 17.4699 0.0583873 16.3272C0.185327 15.4385 0.502706 15.1211 1.51822 15.1846C2.53374 15.2481 3.54922 15.1211 4.50127 14.8672C5.26291 14.6767 5.83419 14.2959 6.15154 13.4706C7.42094 10.4871 8.56335 7.44005 9.51539 4.39302C9.89621 3.18691 10.5944 2.10775 10.9752 0.901635C11.1656 0.203358 12.8159 -0.241009 13.4506 0.13987C13.641 0.26683 13.6409 0.4573 13.7044 0.647739C14.2121 2.04429 13.9583 3.50431 13.9583 5.47219Z" fill="#A6C4FF"/>
</svg>
